<?xml version="1.0" encoding="UTF-8"?><svg xmlns="http://www.w3.org/2000/svg" xmlns:xlink="http://www.w3.org/1999/xlink" fill-opacity="1" color-rendering="auto" color-interpolation="auto" text-rendering="auto" stroke="black" stroke-linecap="square" width="499" stroke-miterlimit="10" shape-rendering="auto" stroke-opacity="1" fill="black" stroke-dasharray="none" font-weight="normal" stroke-width="1" height="143" font-family="'Dialog'" font-style="normal" stroke-linejoin="miter" font-size="12px" stroke-dashoffset="0" image-rendering="auto">
  <!--Generated by ySVG 2.5-->
  <defs id="genericDefs"/>
  <g>
    <defs id="defs1">
      <clipPath clipPathUnits="userSpaceOnUse" id="clipPath1">
        <path d="M0 0 L499 0 L499 143 L0 143 L0 0 Z"/>
      </clipPath>
      <clipPath clipPathUnits="userSpaceOnUse" id="clipPath2">
        <path d="M241 99 L740 99 L740 242 L241 242 L241 99 Z"/>
      </clipPath>
    </defs>
    <g fill="white" text-rendering="geometricPrecision" shape-rendering="geometricPrecision" transform="translate(-241,-99)" stroke="white">
      <rect x="241" width="499" height="143" y="99" clip-path="url(#clipPath2)" stroke="none"/>
    </g>
    <g text-rendering="geometricPrecision" shape-rendering="geometricPrecision" transform="matrix(1,0,0,1,-241,-99)">
      <rect x="434.5" width="112" height="112" y="114.5" clip-path="url(#clipPath2)" stroke="none"/>
      <rect stroke-linecap="butt" x="434.5" y="114.5" clip-path="url(#clipPath2)" fill="none" width="112" height="112" stroke-miterlimit="1.45"/>
    </g>
    <g stroke-linecap="butt" transform="matrix(1,0,0,1,-241,-99)" fill="white" text-rendering="geometricPrecision" font-family="sans-serif" shape-rendering="geometricPrecision" stroke="white" stroke-miterlimit="1.45">
      <text x="471.8203" xml:space="preserve" y="175.2139" clip-path="url(#clipPath2)" stroke="none">ESP32</text>
    </g>
    <g fill="rgb(204,153,255)" text-rendering="geometricPrecision" shape-rendering="geometricPrecision" transform="matrix(1,0,0,1,-241,-99)" stroke="rgb(204,153,255)">
      <rect x="256" width="112" height="112" y="114.5" clip-path="url(#clipPath2)" stroke="none"/>
    </g>
    <g text-rendering="geometricPrecision" stroke-miterlimit="1.45" shape-rendering="geometricPrecision" transform="matrix(1,0,0,1,-241,-99)" stroke-linecap="butt">
      <rect fill="none" x="256" width="112" height="112" y="114.5" clip-path="url(#clipPath2)"/>
      <text x="284.6543" xml:space="preserve" y="175.2139" clip-path="url(#clipPath2)" font-family="sans-serif" stroke="none">LSM6DSL</text>
    </g>
    <g fill="rgb(51,102,255)" text-rendering="geometricPrecision" shape-rendering="geometricPrecision" transform="matrix(1,0,0,1,-241,-99)" stroke="rgb(51,102,255)">
      <rect x="613" width="112" height="112" y="114.5" clip-path="url(#clipPath2)" stroke="none"/>
    </g>
    <g text-rendering="geometricPrecision" stroke-miterlimit="1.45" shape-rendering="geometricPrecision" transform="matrix(1,0,0,1,-241,-99)" stroke-linecap="butt">
      <rect fill="none" x="613" width="112" height="112" y="114.5" clip-path="url(#clipPath2)"/>
      <text x="660.665" xml:space="preserve" y="175.2139" clip-path="url(#clipPath2)" font-family="sans-serif" stroke="none">PC</text>
      <path fill="none" d="M434.5 170.5 L376 170.5" clip-path="url(#clipPath2)"/>
      <path d="M368 170.5 L380 175.5 L377 170.5 L380 165.5 Z" clip-path="url(#clipPath2)" stroke="none"/>
      <path fill="none" d="M368 170.5 L426.5051 170.5" clip-path="url(#clipPath2)"/>
      <path d="M434.5051 170.5 L422.5051 165.5 L425.5051 170.5 L422.5051 175.5 Z" clip-path="url(#clipPath2)" stroke="none"/>
      <text x="391.9131" xml:space="preserve" y="205.2139" clip-path="url(#clipPath2)" font-family="sans-serif" stroke="none">I2C</text>
      <path fill="none" d="M546.5 170.5 L605 170.5" clip-path="url(#clipPath2)"/>
      <path d="M613 170.5 L601 165.5 L604 170.5 L601 175.5 Z" clip-path="url(#clipPath2)" stroke="none"/>
      <text x="567.4131" xml:space="preserve" y="205.2139" clip-path="url(#clipPath2)" font-family="sans-serif" stroke="none">USB</text>
    </g>
  </g>
</svg>
