<?xml version="1.0" encoding="UTF-8"?><svg xmlns="http://www.w3.org/2000/svg" xmlns:xlink="http://www.w3.org/1999/xlink" fill-opacity="1" color-rendering="auto" color-interpolation="auto" text-rendering="auto" stroke="black" stroke-linecap="square" width="789" stroke-miterlimit="10" shape-rendering="auto" stroke-opacity="1" fill="black" stroke-dasharray="none" font-weight="normal" stroke-width="1" height="578" font-family="'Dialog'" font-style="normal" stroke-linejoin="miter" font-size="12px" stroke-dashoffset="0" image-rendering="auto">
  <!--Generated by ySVG 2.5-->
  <defs id="genericDefs"/>
  <g>
    <defs id="defs1">
      <linearGradient x1="529" gradientUnits="userSpaceOnUse" x2="609" y1="31" y2="71" id="linearGradient1" spreadMethod="reflect">
        <stop stop-opacity="1" stop-color="rgb(232,238,247)" offset="0%"/>
        <stop stop-opacity="1" stop-color="rgb(183,201,227)" offset="100%"/>
      </linearGradient>
      <linearGradient x1="757.64" gradientUnits="userSpaceOnUse" x2="837.64" y1="165" y2="205" id="linearGradient2" spreadMethod="reflect">
        <stop stop-opacity="1" stop-color="rgb(232,238,247)" offset="0%"/>
        <stop stop-opacity="1" stop-color="rgb(183,201,227)" offset="100%"/>
      </linearGradient>
      <linearGradient x1="491.5" gradientUnits="userSpaceOnUse" x2="646.5" y1="95" y2="135" id="linearGradient3" spreadMethod="reflect">
        <stop stop-opacity="1" stop-color="rgb(232,238,247)" offset="0%"/>
        <stop stop-opacity="1" stop-color="rgb(183,201,227)" offset="100%"/>
      </linearGradient>
      <linearGradient x1="491.5" gradientUnits="userSpaceOnUse" x2="646.5" y1="423" y2="463" id="linearGradient4" spreadMethod="reflect">
        <stop stop-opacity="1" stop-color="rgb(232,238,247)" offset="0%"/>
        <stop stop-opacity="1" stop-color="rgb(183,201,227)" offset="100%"/>
      </linearGradient>
      <linearGradient x1="491.5" gradientUnits="userSpaceOnUse" x2="646.5" y1="493" y2="533" id="linearGradient5" spreadMethod="reflect">
        <stop stop-opacity="1" stop-color="rgb(232,238,247)" offset="0%"/>
        <stop stop-opacity="1" stop-color="rgb(183,201,227)" offset="100%"/>
      </linearGradient>
      <linearGradient x1="491.5" gradientUnits="userSpaceOnUse" x2="646.5" y1="165" y2="205" id="linearGradient6" spreadMethod="reflect">
        <stop stop-opacity="1" stop-color="rgb(232,238,247)" offset="0%"/>
        <stop stop-opacity="1" stop-color="rgb(183,201,227)" offset="100%"/>
      </linearGradient>
      <linearGradient x1="199.5" gradientUnits="userSpaceOnUse" x2="354.5" y1="165" y2="205" id="linearGradient7" spreadMethod="reflect">
        <stop stop-opacity="1" stop-color="rgb(232,238,247)" offset="0%"/>
        <stop stop-opacity="1" stop-color="rgb(183,201,227)" offset="100%"/>
      </linearGradient>
      <linearGradient x1="199.5" gradientUnits="userSpaceOnUse" x2="354.5" y1="235" y2="275" id="linearGradient8" spreadMethod="reflect">
        <stop stop-opacity="1" stop-color="rgb(232,238,247)" offset="0%"/>
        <stop stop-opacity="1" stop-color="rgb(183,201,227)" offset="100%"/>
      </linearGradient>
      <linearGradient x1="199.5" gradientUnits="userSpaceOnUse" x2="354.5" y1="293" y2="333" id="linearGradient9" spreadMethod="reflect">
        <stop stop-opacity="1" stop-color="rgb(232,238,247)" offset="0%"/>
        <stop stop-opacity="1" stop-color="rgb(183,201,227)" offset="100%"/>
      </linearGradient>
      <linearGradient x1="499" gradientUnits="userSpaceOnUse" x2="639" y1="235" y2="304" id="linearGradient10" spreadMethod="reflect">
        <stop stop-opacity="1" stop-color="rgb(232,238,247)" offset="0%"/>
        <stop stop-opacity="1" stop-color="rgb(183,201,227)" offset="100%"/>
      </linearGradient>
      <linearGradient x1="701" gradientUnits="userSpaceOnUse" x2="856" y1="296" y2="336" id="linearGradient11" spreadMethod="reflect">
        <stop stop-opacity="1" stop-color="rgb(232,238,247)" offset="0%"/>
        <stop stop-opacity="1" stop-color="rgb(183,201,227)" offset="100%"/>
      </linearGradient>
      <linearGradient x1="701" gradientUnits="userSpaceOnUse" x2="856" y1="366" y2="406" id="linearGradient12" spreadMethod="reflect">
        <stop stop-opacity="1" stop-color="rgb(232,238,247)" offset="0%"/>
        <stop stop-opacity="1" stop-color="rgb(183,201,227)" offset="100%"/>
      </linearGradient>
      <linearGradient x1="499" gradientUnits="userSpaceOnUse" x2="639" y1="324" y2="393" id="linearGradient13" spreadMethod="reflect">
        <stop stop-opacity="1" stop-color="rgb(232,238,247)" offset="0%"/>
        <stop stop-opacity="1" stop-color="rgb(183,201,227)" offset="100%"/>
      </linearGradient>
      <linearGradient x1="207" gradientUnits="userSpaceOnUse" x2="347" y1="351" y2="420" id="linearGradient14" spreadMethod="reflect">
        <stop stop-opacity="1" stop-color="rgb(232,238,247)" offset="0%"/>
        <stop stop-opacity="1" stop-color="rgb(183,201,227)" offset="100%"/>
      </linearGradient>
      <linearGradient x1="97" gradientUnits="userSpaceOnUse" x2="177" y1="370" y2="401" id="linearGradient15" spreadMethod="reflect">
        <stop stop-opacity="1" stop-color="rgb(232,238,247)" offset="0%"/>
        <stop stop-opacity="1" stop-color="rgb(183,201,227)" offset="100%"/>
      </linearGradient>
      <linearGradient x1="207" gradientUnits="userSpaceOnUse" x2="347" y1="438" y2="507" id="linearGradient16" spreadMethod="reflect">
        <stop stop-opacity="1" stop-color="rgb(232,238,247)" offset="0%"/>
        <stop stop-opacity="1" stop-color="rgb(183,201,227)" offset="100%"/>
      </linearGradient>
      <linearGradient x1="97" gradientUnits="userSpaceOnUse" x2="177" y1="457" y2="488" id="linearGradient17" spreadMethod="reflect">
        <stop stop-opacity="1" stop-color="rgb(232,238,247)" offset="0%"/>
        <stop stop-opacity="1" stop-color="rgb(183,201,227)" offset="100%"/>
      </linearGradient>
      <linearGradient x1="199.5" gradientUnits="userSpaceOnUse" x2="354.5" y1="537" y2="577" id="linearGradient18" spreadMethod="reflect">
        <stop stop-opacity="1" stop-color="rgb(232,238,247)" offset="0%"/>
        <stop stop-opacity="1" stop-color="rgb(183,201,227)" offset="100%"/>
      </linearGradient>
      <clipPath clipPathUnits="userSpaceOnUse" id="clipPath1">
        <path d="M0 0 L789 0 L789 578 L0 578 L0 0 Z"/>
      </clipPath>
      <clipPath clipPathUnits="userSpaceOnUse" id="clipPath2">
        <path d="M82 14 L871 14 L871 592 L82 592 L82 14 Z"/>
      </clipPath>
    </defs>
    <g fill="white" text-rendering="geometricPrecision" shape-rendering="geometricPrecision" transform="translate(-82,-14)" stroke="white">
      <rect x="82" width="789" height="578" y="14" clip-path="url(#clipPath2)" stroke="none"/>
    </g>
    <g fill="url(#linearGradient1)" text-rendering="geometricPrecision" shape-rendering="geometricPrecision" transform="matrix(1,0,0,1,-82,-14)" stroke="url(#linearGradient1)">
      <circle r="20" clip-path="url(#clipPath2)" cx="569" cy="51" stroke="none"/>
    </g>
    <g text-rendering="geometricPrecision" stroke-miterlimit="1.45" shape-rendering="geometricPrecision" transform="matrix(1,0,0,1,-82,-14)" stroke-linecap="butt">
      <circle fill="none" r="20" clip-path="url(#clipPath2)" cx="569" cy="51"/>
      <text x="550.3203" xml:space="preserve" y="55.7139" clip-path="url(#clipPath2)" font-family="sans-serif" stroke="none">ESP32</text>
    </g>
    <g fill="url(#linearGradient2)" text-rendering="geometricPrecision" shape-rendering="geometricPrecision" transform="matrix(1,0,0,1,-82,-14)" stroke="url(#linearGradient2)">
      <rect x="757.64" y="165" clip-path="url(#clipPath2)" width="80" rx="20" ry="20" height="40" stroke="none"/>
    </g>
    <g text-rendering="geometricPrecision" stroke-miterlimit="1.45" shape-rendering="geometricPrecision" transform="matrix(1,0,0,1,-82,-14)" stroke-linecap="butt">
      <rect x="757.64" y="165" clip-path="url(#clipPath2)" fill="none" width="80" rx="20" ry="20" height="40"/>
      <text x="787.975" xml:space="preserve" y="189.7139" clip-path="url(#clipPath2)" font-family="sans-serif" stroke="none">FIN</text>
    </g>
    <g fill="url(#linearGradient3)" text-rendering="geometricPrecision" shape-rendering="geometricPrecision" transform="matrix(1,0,0,1,-82,-14)" stroke="url(#linearGradient3)">
      <path d="M491.5 95 L646.5 95 L646.5 135 L491.5 135 Z" stroke="none" clip-path="url(#clipPath2)"/>
    </g>
    <g text-rendering="geometricPrecision" stroke-miterlimit="1.45" shape-rendering="geometricPrecision" transform="matrix(1,0,0,1,-82,-14)" stroke-linecap="butt">
      <path fill="none" d="M491.5 95 L646.5 95 L646.5 135 L491.5 135 Z" clip-path="url(#clipPath2)"/>
      <text x="516.9834" xml:space="preserve" y="119.7139" clip-path="url(#clipPath2)" font-family="sans-serif" stroke="none">Inicialización UART</text>
    </g>
    <g fill="url(#linearGradient4)" text-rendering="geometricPrecision" shape-rendering="geometricPrecision" transform="matrix(1,0,0,1,-82,-14)" stroke="url(#linearGradient4)">
      <path d="M491.5 423 L646.5 423 L646.5 463 L491.5 463 Z" stroke="none" clip-path="url(#clipPath2)"/>
    </g>
    <g text-rendering="geometricPrecision" stroke-miterlimit="1.45" shape-rendering="geometricPrecision" transform="matrix(1,0,0,1,-82,-14)" stroke-linecap="butt">
      <path fill="none" d="M491.5 423 L646.5 423 L646.5 463 L491.5 463 Z" clip-path="url(#clipPath2)"/>
      <text x="532.6426" xml:space="preserve" y="447.7139" clip-path="url(#clipPath2)" font-family="sans-serif" stroke="none">Lecutra datos</text>
    </g>
    <g fill="url(#linearGradient5)" text-rendering="geometricPrecision" shape-rendering="geometricPrecision" transform="matrix(1,0,0,1,-82,-14)" stroke="url(#linearGradient5)">
      <path d="M491.5 493 L646.5 493 L646.5 533 L491.5 533 Z" stroke="none" clip-path="url(#clipPath2)"/>
    </g>
    <g text-rendering="geometricPrecision" stroke-miterlimit="1.45" shape-rendering="geometricPrecision" transform="matrix(1,0,0,1,-82,-14)" stroke-linecap="butt">
      <path fill="none" d="M491.5 493 L646.5 493 L646.5 533 L491.5 533 Z" clip-path="url(#clipPath2)"/>
      <text x="511.6396" xml:space="preserve" y="517.7139" clip-path="url(#clipPath2)" font-family="sans-serif" stroke="none">Transmisión de datos</text>
    </g>
    <g fill="url(#linearGradient6)" text-rendering="geometricPrecision" shape-rendering="geometricPrecision" transform="matrix(1,0,0,1,-82,-14)" stroke="url(#linearGradient6)">
      <path d="M491.5 165 L646.5 165 L646.5 205 L491.5 205 Z" stroke="none" clip-path="url(#clipPath2)"/>
    </g>
    <g text-rendering="geometricPrecision" stroke-miterlimit="1.45" shape-rendering="geometricPrecision" transform="matrix(1,0,0,1,-82,-14)" stroke-linecap="butt">
      <path fill="none" d="M491.5 165 L646.5 165 L646.5 205 L491.5 205 Z" clip-path="url(#clipPath2)"/>
      <text x="505.9707" xml:space="preserve" y="189.7139" clip-path="url(#clipPath2)" font-family="sans-serif" stroke="none">Inicialización LSM6DSL</text>
    </g>
    <g fill="url(#linearGradient7)" text-rendering="geometricPrecision" shape-rendering="geometricPrecision" transform="matrix(1,0,0,1,-82,-14)" stroke="url(#linearGradient7)">
      <path d="M199.5 165 L354.5 165 L354.5 205 L199.5 205 Z" stroke="none" clip-path="url(#clipPath2)"/>
    </g>
    <g text-rendering="geometricPrecision" stroke-miterlimit="1.45" shape-rendering="geometricPrecision" transform="matrix(1,0,0,1,-82,-14)" stroke-linecap="butt">
      <path fill="none" d="M199.5 165 L354.5 165 L354.5 205 L199.5 205 Z" clip-path="url(#clipPath2)"/>
      <text x="213.9707" xml:space="preserve" y="189.7139" clip-path="url(#clipPath2)" font-family="sans-serif" stroke="none">Inicialización LSM6DSL</text>
    </g>
    <g fill="url(#linearGradient8)" text-rendering="geometricPrecision" shape-rendering="geometricPrecision" transform="matrix(1,0,0,1,-82,-14)" stroke="url(#linearGradient8)">
      <path d="M199.5 235 L354.5 235 L354.5 275 L199.5 275 Z" stroke="none" clip-path="url(#clipPath2)"/>
    </g>
    <g text-rendering="geometricPrecision" stroke-miterlimit="1.45" shape-rendering="geometricPrecision" transform="matrix(1,0,0,1,-82,-14)" stroke-linecap="butt">
      <path fill="none" d="M199.5 235 L354.5 235 L354.5 275 L199.5 275 Z" clip-path="url(#clipPath2)"/>
      <text x="226.3135" xml:space="preserve" y="259.7139" clip-path="url(#clipPath2)" font-family="sans-serif" stroke="none">Inicialización GPIO</text>
    </g>
    <g fill="url(#linearGradient9)" text-rendering="geometricPrecision" shape-rendering="geometricPrecision" transform="matrix(1,0,0,1,-82,-14)" stroke="url(#linearGradient9)">
      <path d="M199.5 293 L354.5 293 L354.5 333 L199.5 333 Z" stroke="none" clip-path="url(#clipPath2)"/>
    </g>
    <g text-rendering="geometricPrecision" stroke-miterlimit="1.45" shape-rendering="geometricPrecision" transform="matrix(1,0,0,1,-82,-14)" stroke-linecap="butt">
      <path fill="none" d="M199.5 293 L354.5 293 L354.5 333 L199.5 333 Z" clip-path="url(#clipPath2)"/>
      <text x="231.9795" xml:space="preserve" y="317.7139" clip-path="url(#clipPath2)" font-family="sans-serif" stroke="none">Inicialización I2C</text>
    </g>
    <g fill="url(#linearGradient10)" text-rendering="geometricPrecision" shape-rendering="geometricPrecision" transform="matrix(1,0,0,1,-82,-14)" stroke="url(#linearGradient10)">
      <path d="M569 235 L639 269.5 L569 304 L499 269.5 Z" stroke="none" clip-path="url(#clipPath2)"/>
    </g>
    <g text-rendering="geometricPrecision" stroke-miterlimit="1.45" shape-rendering="geometricPrecision" transform="matrix(1,0,0,1,-82,-14)" stroke-linecap="butt">
      <path fill="none" d="M569 235 L639 269.5 L569 304 L499 269.5 Z" clip-path="url(#clipPath2)"/>
      <text x="521.3105" xml:space="preserve" y="274.2139" clip-path="url(#clipPath2)" font-family="sans-serif" stroke="none">Inicialización OK?</text>
    </g>
    <g fill="url(#linearGradient11)" text-rendering="geometricPrecision" shape-rendering="geometricPrecision" transform="matrix(1,0,0,1,-82,-14)" stroke="url(#linearGradient11)">
      <path d="M701 296 L856 296 L856 336 L701 336 Z" stroke="none" clip-path="url(#clipPath2)"/>
    </g>
    <g text-rendering="geometricPrecision" stroke-miterlimit="1.45" shape-rendering="geometricPrecision" transform="matrix(1,0,0,1,-82,-14)" stroke-linecap="butt">
      <path fill="none" d="M701 296 L856 296 L856 336 L701 336 Z" clip-path="url(#clipPath2)"/>
      <text x="757.1543" xml:space="preserve" y="320.7139" clip-path="url(#clipPath2)" font-family="sans-serif" stroke="none">Reporte</text>
    </g>
    <g fill="url(#linearGradient12)" text-rendering="geometricPrecision" shape-rendering="geometricPrecision" transform="matrix(1,0,0,1,-82,-14)" stroke="url(#linearGradient12)">
      <path d="M701 366 L856 366 L856 406 L701 406 Z" stroke="none" clip-path="url(#clipPath2)"/>
    </g>
    <g text-rendering="geometricPrecision" stroke-miterlimit="1.45" shape-rendering="geometricPrecision" transform="matrix(1,0,0,1,-82,-14)" stroke-linecap="butt">
      <path fill="none" d="M701 366 L856 366 L856 406 L701 406 Z" clip-path="url(#clipPath2)"/>
      <text x="748.1455" xml:space="preserve" y="390.7139" clip-path="url(#clipPath2)" font-family="sans-serif" stroke="none">loop infinito</text>
    </g>
    <g fill="url(#linearGradient13)" text-rendering="geometricPrecision" shape-rendering="geometricPrecision" transform="matrix(1,0,0,1,-82,-14)" stroke="url(#linearGradient13)">
      <path d="M569 324 L639 358.5 L569 393 L499 358.5 Z" stroke="none" clip-path="url(#clipPath2)"/>
    </g>
    <g text-rendering="geometricPrecision" stroke-miterlimit="1.45" shape-rendering="geometricPrecision" transform="matrix(1,0,0,1,-82,-14)" stroke-linecap="butt">
      <path fill="none" d="M569 324 L639 358.5 L569 393 L499 358.5 Z" clip-path="url(#clipPath2)"/>
      <text x="533.9785" xml:space="preserve" y="363.2139" clip-path="url(#clipPath2)" font-family="sans-serif" stroke="none">Nuevo Dato?</text>
    </g>
    <g fill="url(#linearGradient14)" text-rendering="geometricPrecision" shape-rendering="geometricPrecision" transform="matrix(1,0,0,1,-82,-14)" stroke="url(#linearGradient14)">
      <path d="M277 351 L347 385.5 L277 420 L207 385.5 Z" stroke="none" clip-path="url(#clipPath2)"/>
    </g>
    <g text-rendering="geometricPrecision" stroke-miterlimit="1.45" shape-rendering="geometricPrecision" transform="matrix(1,0,0,1,-82,-14)" stroke-linecap="butt">
      <path fill="none" d="M277 351 L347 385.5 L277 420 L207 385.5 Z" clip-path="url(#clipPath2)"/>
      <text x="229.3105" xml:space="preserve" y="390.2139" clip-path="url(#clipPath2)" font-family="sans-serif" stroke="none">Inicialización OK?</text>
    </g>
    <g fill="url(#linearGradient15)" text-rendering="geometricPrecision" shape-rendering="geometricPrecision" transform="matrix(1,0,0,1,-82,-14)" stroke="url(#linearGradient15)">
      <path d="M97 370 L177 370 L177 401 L97 401 Z" stroke="none" clip-path="url(#clipPath2)"/>
    </g>
    <g text-rendering="geometricPrecision" stroke-miterlimit="1.45" shape-rendering="geometricPrecision" transform="matrix(1,0,0,1,-82,-14)" stroke-linecap="butt">
      <path fill="none" d="M97 370 L177 370 L177 401 L97 401 Z" clip-path="url(#clipPath2)"/>
      <text x="103.9912" xml:space="preserve" y="390.2139" clip-path="url(#clipPath2)" font-family="sans-serif" stroke="none">Return Error</text>
    </g>
    <g fill="url(#linearGradient16)" text-rendering="geometricPrecision" shape-rendering="geometricPrecision" transform="matrix(1,0,0,1,-82,-14)" stroke="url(#linearGradient16)">
      <path d="M277 438 L347 472.5 L277 507 L207 472.5 Z" stroke="none" clip-path="url(#clipPath2)"/>
    </g>
    <g text-rendering="geometricPrecision" stroke-miterlimit="1.45" shape-rendering="geometricPrecision" transform="matrix(1,0,0,1,-82,-14)" stroke-linecap="butt">
      <path fill="none" d="M277 438 L347 472.5 L277 507 L207 472.5 Z" clip-path="url(#clipPath2)"/>
      <text x="221.3008" xml:space="preserve" y="477.2139" clip-path="url(#clipPath2)" font-family="sans-serif" stroke="none">LSM6DSL presente?</text>
    </g>
    <g fill="url(#linearGradient17)" text-rendering="geometricPrecision" shape-rendering="geometricPrecision" transform="matrix(1,0,0,1,-82,-14)" stroke="url(#linearGradient17)">
      <path d="M97 457 L177 457 L177 488 L97 488 Z" stroke="none" clip-path="url(#clipPath2)"/>
    </g>
    <g text-rendering="geometricPrecision" stroke-miterlimit="1.45" shape-rendering="geometricPrecision" transform="matrix(1,0,0,1,-82,-14)" stroke-linecap="butt">
      <path fill="none" d="M97 457 L177 457 L177 488 L97 488 Z" clip-path="url(#clipPath2)"/>
      <text x="103.9912" xml:space="preserve" y="477.2139" clip-path="url(#clipPath2)" font-family="sans-serif" stroke="none">Return Error</text>
    </g>
    <g fill="url(#linearGradient18)" text-rendering="geometricPrecision" shape-rendering="geometricPrecision" transform="matrix(1,0,0,1,-82,-14)" stroke="url(#linearGradient18)">
      <path d="M199.5 537 L354.5 537 L354.5 577 L199.5 577 Z" stroke="none" clip-path="url(#clipPath2)"/>
    </g>
    <g text-rendering="geometricPrecision" stroke-miterlimit="1.45" shape-rendering="geometricPrecision" transform="matrix(1,0,0,1,-82,-14)" stroke-linecap="butt">
      <path fill="none" d="M199.5 537 L354.5 537 L354.5 577 L199.5 577 Z" clip-path="url(#clipPath2)"/>
      <text x="210.9648" xml:space="preserve" y="561.7139" clip-path="url(#clipPath2)" font-family="sans-serif" stroke="none">Configuración LSM6DSL</text>
    </g>
    <g text-rendering="geometricPrecision" stroke-miterlimit="1.45" shape-rendering="geometricPrecision" transform="matrix(1,0,0,1,-82,-14)" stroke-linecap="butt">
      <path fill="none" d="M797.64 165.0265 L797.64 29.76 L797.64 164.8 L797.64 164.8 L797.64 164.8 L797.64 164.9973" clip-path="url(#clipPath2)"/>
    </g>
    <g text-rendering="geometricPrecision" stroke-miterlimit="1.45" shape-rendering="geometricPrecision" transform="matrix(1,0,0,1,-82,-14)" stroke-linecap="butt">
      <path d="M797.64 164.9973 L802.64 152.9973 L797.64 155.9973 L792.64 152.9973 Z" stroke="none" clip-path="url(#clipPath2)"/>
      <text x="800.7825" xml:space="preserve" y="95.0245" clip-path="url(#clipPath2)" font-family="sans-serif" stroke="none">RESET</text>
      <path fill="none" d="M569 70.9688 L569 87.0053" clip-path="url(#clipPath2)"/>
      <path d="M569 95.0053 L574 83.0053 L569 86.0053 L564 83.0053 Z" clip-path="url(#clipPath2)" stroke="none"/>
      <path fill="none" d="M569 462.9951 L569 485.0273" clip-path="url(#clipPath2)"/>
      <path d="M569 493.0273 L574 481.0273 L569 484.0273 L564 481.0273 Z" clip-path="url(#clipPath2)" stroke="none"/>
      <path fill="none" d="M569 134.9951 L569 157.0273" clip-path="url(#clipPath2)"/>
      <path d="M569 165.0273 L574 153.0273 L569 156.0273 L564 153.0273 Z" clip-path="url(#clipPath2)" stroke="none"/>
      <path fill="none" stroke-dasharray="6,2" d="M491.4731 185 L362.5214 185" clip-path="url(#clipPath2)"/>
      <path stroke-dasharray="6,2" d="M354.5214 185 L366.5214 190 L363.5214 185 L366.5214 180 Z" clip-path="url(#clipPath2)" stroke="none"/>
      <path fill="none" d="M277 204.9951 L277 227.0273" clip-path="url(#clipPath2)"/>
      <path d="M277 235.0273 L282 223.0273 L277 226.0273 L272 223.0273 Z" clip-path="url(#clipPath2)" stroke="none"/>
      <path fill="none" d="M277 275.0225 L277 285.0099" clip-path="url(#clipPath2)"/>
      <path d="M277 293.0099 L282 281.0099 L277 284.0099 L272 281.0099 Z" clip-path="url(#clipPath2)" stroke="none"/>
      <path fill="none" d="M569 205.011 L569 227.0198" clip-path="url(#clipPath2)"/>
      <path d="M569 235.0198 L574 223.0198 L569 226.0198 L564 223.0198 Z" clip-path="url(#clipPath2)" stroke="none"/>
      <path fill="none" d="M638.9969 269.5 L751.5 269.5 L778.5 269.5 L778.5 287.9741" clip-path="url(#clipPath2)"/>
      <path d="M778.5 295.9741 L783.5 283.9741 L778.5 286.9741 L773.5 283.9741 Z" clip-path="url(#clipPath2)" stroke="none"/>
      <path fill="none" d="M778.5 335.9951 L778.5 358.0273" clip-path="url(#clipPath2)"/>
      <path d="M778.5 366.0273 L783.5 354.0273 L778.5 357.0273 L773.5 354.0273 Z" clip-path="url(#clipPath2)" stroke="none"/>
      <path fill="none" d="M569 303.9614 L569 316.0139" clip-path="url(#clipPath2)"/>
      <path d="M569 324.0139 L574 312.0139 L569 315.0139 L564 312.0139 Z" clip-path="url(#clipPath2)" stroke="none"/>
      <path fill="none" d="M569 533.0396 L569 558.5 L569 569.5 L447.5 569.5 L447.5 358.5 L491.0248 358.5" clip-path="url(#clipPath2)"/>
      <path d="M499.0248 358.5 L487.0248 353.5 L490.0248 358.5 L487.0248 363.5 Z" clip-path="url(#clipPath2)" stroke="none"/>
      <path fill="none" d="M569 393.0344 L569 415.0431" clip-path="url(#clipPath2)"/>
      <path d="M569 423.0431 L574 411.0431 L569 414.0431 L564 411.0431 Z" clip-path="url(#clipPath2)" stroke="none"/>
      <path fill="none" d="M277 333.0012 L277 343.022" clip-path="url(#clipPath2)"/>
      <path d="M277 351.022 L282 339.022 L277 342.022 L272 339.022 Z" clip-path="url(#clipPath2)" stroke="none"/>
      <path fill="none" d="M206.9658 385.5 L185.0049 385.5" clip-path="url(#clipPath2)"/>
      <path d="M177.0049 385.5 L189.0049 390.5 L186.0049 385.5 L189.0049 380.5 Z" clip-path="url(#clipPath2)" stroke="none"/>
      <path fill="none" d="M277 420.0366 L277 429.994" clip-path="url(#clipPath2)"/>
      <path d="M277 437.994 L282 425.994 L277 428.994 L272 425.994 Z" clip-path="url(#clipPath2)" stroke="none"/>
      <path fill="none" d="M206.9658 472.5 L185.0049 472.5" clip-path="url(#clipPath2)"/>
      <path d="M177.0049 472.5 L189.0049 477.5 L186.0049 472.5 L189.0049 467.5 Z" clip-path="url(#clipPath2)" stroke="none"/>
      <path fill="none" d="M277 507.0344 L277 529.043" clip-path="url(#clipPath2)"/>
      <path d="M277 537.043 L282 525.043 L277 528.043 L272 525.043 Z" clip-path="url(#clipPath2)" stroke="none"/>
    </g>
  </g>
</svg>
