<?xml version="1.0" encoding="UTF-8"?><svg xmlns="http://www.w3.org/2000/svg" xmlns:xlink="http://www.w3.org/1999/xlink" fill-opacity="1" color-rendering="auto" color-interpolation="auto" text-rendering="auto" stroke="black" stroke-linecap="square" width="439" stroke-miterlimit="10" shape-rendering="auto" stroke-opacity="1" fill="black" stroke-dasharray="none" font-weight="normal" stroke-width="1" height="362" font-family="'Dialog'" font-style="normal" stroke-linejoin="miter" font-size="12px" stroke-dashoffset="0" image-rendering="auto">
  <!--Generated by ySVG 2.5-->
  <defs id="genericDefs"/>
  <g>
    <defs id="defs1">
      <linearGradient x1="302.64" gradientUnits="userSpaceOnUse" x2="382.64" y1="257.04" y2="297.04" id="linearGradient1" spreadMethod="reflect">
        <stop stop-opacity="1" stop-color="rgb(232,238,247)" offset="0%"/>
        <stop stop-opacity="1" stop-color="rgb(183,201,227)" offset="100%"/>
      </linearGradient>
      <linearGradient x1="491.5" gradientUnits="userSpaceOnUse" x2="646.5" y1="95" y2="135" id="linearGradient2" spreadMethod="reflect">
        <stop stop-opacity="1" stop-color="rgb(232,238,247)" offset="0%"/>
        <stop stop-opacity="1" stop-color="rgb(183,201,227)" offset="100%"/>
      </linearGradient>
      <linearGradient x1="491.5" gradientUnits="userSpaceOnUse" x2="646.5" y1="223" y2="263" id="linearGradient3" spreadMethod="reflect">
        <stop stop-opacity="1" stop-color="rgb(232,238,247)" offset="0%"/>
        <stop stop-opacity="1" stop-color="rgb(183,201,227)" offset="100%"/>
      </linearGradient>
      <linearGradient x1="491.5" gradientUnits="userSpaceOnUse" x2="646.5" y1="159" y2="199" id="linearGradient4" spreadMethod="reflect">
        <stop stop-opacity="1" stop-color="rgb(232,238,247)" offset="0%"/>
        <stop stop-opacity="1" stop-color="rgb(183,201,227)" offset="100%"/>
      </linearGradient>
      <linearGradient x1="491.5" gradientUnits="userSpaceOnUse" x2="646.5" y1="287" y2="327" id="linearGradient5" spreadMethod="reflect">
        <stop stop-opacity="1" stop-color="rgb(232,238,247)" offset="0%"/>
        <stop stop-opacity="1" stop-color="rgb(183,201,227)" offset="100%"/>
      </linearGradient>
      <linearGradient x1="510.25" gradientUnits="userSpaceOnUse" x2="627.75" y1="25" y2="65" id="linearGradient6" spreadMethod="reflect">
        <stop stop-opacity="1" stop-color="rgb(232,238,247)" offset="0%"/>
        <stop stop-opacity="1" stop-color="rgb(183,201,227)" offset="100%"/>
      </linearGradient>
      <clipPath clipPathUnits="userSpaceOnUse" id="clipPath1">
        <path d="M0 0 L439 0 L439 362 L0 362 L0 0 Z"/>
      </clipPath>
      <clipPath clipPathUnits="userSpaceOnUse" id="clipPath2">
        <path d="M287 10 L726 10 L726 372 L287 372 L287 10 Z"/>
      </clipPath>
    </defs>
    <g fill="white" text-rendering="geometricPrecision" shape-rendering="geometricPrecision" transform="translate(-287,-10)" stroke="white">
      <rect x="287" width="439" height="362" y="10" clip-path="url(#clipPath2)" stroke="none"/>
    </g>
    <g fill="url(#linearGradient1)" text-rendering="geometricPrecision" shape-rendering="geometricPrecision" transform="matrix(1,0,0,1,-287,-10)" stroke="url(#linearGradient1)">
      <rect x="302.64" y="257.04" clip-path="url(#clipPath2)" width="80" rx="20" ry="20" height="40" stroke="none"/>
    </g>
    <g text-rendering="geometricPrecision" stroke-miterlimit="1.45" shape-rendering="geometricPrecision" transform="matrix(1,0,0,1,-287,-10)" stroke-linecap="butt">
      <rect x="302.64" y="257.04" clip-path="url(#clipPath2)" fill="none" width="80" rx="20" ry="20" height="40"/>
      <text x="332.975" xml:space="preserve" y="281.7539" clip-path="url(#clipPath2)" font-family="sans-serif" stroke="none">FIN</text>
    </g>
    <g fill="url(#linearGradient2)" text-rendering="geometricPrecision" shape-rendering="geometricPrecision" transform="matrix(1,0,0,1,-287,-10)" stroke="url(#linearGradient2)">
      <path d="M491.5 95 L646.5 95 L646.5 135 L491.5 135 Z" stroke="none" clip-path="url(#clipPath2)"/>
    </g>
    <g text-rendering="geometricPrecision" stroke-miterlimit="1.45" shape-rendering="geometricPrecision" transform="matrix(1,0,0,1,-287,-10)" stroke-linecap="butt">
      <path fill="none" d="M491.5 95 L646.5 95 L646.5 135 L491.5 135 Z" clip-path="url(#clipPath2)"/>
      <text x="506.9785" xml:space="preserve" y="119.7139" clip-path="url(#clipPath2)" font-family="sans-serif" stroke="none">Inicalización  COM port</text>
    </g>
    <g fill="url(#linearGradient3)" text-rendering="geometricPrecision" shape-rendering="geometricPrecision" transform="matrix(1,0,0,1,-287,-10)" stroke="url(#linearGradient3)">
      <path d="M491.5 223 L646.5 223 L646.5 263 L491.5 263 Z" stroke="none" clip-path="url(#clipPath2)"/>
    </g>
    <g text-rendering="geometricPrecision" stroke-miterlimit="1.45" shape-rendering="geometricPrecision" transform="matrix(1,0,0,1,-287,-10)" stroke-linecap="butt">
      <path fill="none" d="M491.5 223 L646.5 223 L646.5 263 L491.5 263 Z" clip-path="url(#clipPath2)"/>
      <text x="532.6426" xml:space="preserve" y="247.7139" clip-path="url(#clipPath2)" font-family="sans-serif" stroke="none">Lecutra datos</text>
    </g>
    <g fill="url(#linearGradient4)" text-rendering="geometricPrecision" shape-rendering="geometricPrecision" transform="matrix(1,0,0,1,-287,-10)" stroke="url(#linearGradient4)">
      <path d="M491.5 159 L646.5 159 L646.5 199 L491.5 199 Z" stroke="none" clip-path="url(#clipPath2)"/>
    </g>
    <g text-rendering="geometricPrecision" stroke-miterlimit="1.45" shape-rendering="geometricPrecision" transform="matrix(1,0,0,1,-287,-10)" stroke-linecap="butt">
      <path fill="none" d="M491.5 159 L646.5 159 L646.5 199 L491.5 199 Z" clip-path="url(#clipPath2)"/>
      <text x="512.627" xml:space="preserve" y="183.7139" clip-path="url(#clipPath2)" font-family="sans-serif" stroke="none">Espera llegada datos</text>
    </g>
    <g fill="url(#linearGradient5)" text-rendering="geometricPrecision" shape-rendering="geometricPrecision" transform="matrix(1,0,0,1,-287,-10)" stroke="url(#linearGradient5)">
      <path d="M491.5 287 L646.5 287 L646.5 327 L491.5 327 Z" stroke="none" clip-path="url(#clipPath2)"/>
    </g>
    <g text-rendering="geometricPrecision" stroke-miterlimit="1.45" shape-rendering="geometricPrecision" transform="matrix(1,0,0,1,-287,-10)" stroke-linecap="butt">
      <path fill="none" d="M491.5 287 L646.5 287 L646.5 327 L491.5 327 Z" clip-path="url(#clipPath2)"/>
      <text x="499.625" xml:space="preserve" y="304.3633" clip-path="url(#clipPath2)" font-family="sans-serif" stroke="none">Almacenamiento de datos</text>
      <text x="539.3193" xml:space="preserve" y="319.0645" clip-path="url(#clipPath2)" font-family="sans-serif" stroke="none">temporales</text>
    </g>
    <g fill="url(#linearGradient6)" text-rendering="geometricPrecision" shape-rendering="geometricPrecision" transform="matrix(1,0,0,1,-287,-10)" stroke="url(#linearGradient6)">
      <ellipse rx="58.75" ry="20" clip-path="url(#clipPath2)" cx="569" cy="45" stroke="none"/>
    </g>
    <g text-rendering="geometricPrecision" stroke-miterlimit="1.45" shape-rendering="geometricPrecision" transform="matrix(1,0,0,1,-287,-10)" stroke-linecap="butt">
      <ellipse rx="58.75" fill="none" ry="20" clip-path="url(#clipPath2)" cx="569" cy="45"/>
      <text x="516.3037" xml:space="preserve" y="49.7139" clip-path="url(#clipPath2)" font-family="sans-serif" stroke="none">Python - Ordenador</text>
    </g>
    <g text-rendering="geometricPrecision" stroke-miterlimit="1.45" shape-rendering="geometricPrecision" transform="matrix(1,0,0,1,-287,-10)" stroke-linecap="butt">
      <path fill="none" d="M342.64 257.0665 L342.64 121.8 L342.64 256.84 L342.64 256.84 L342.64 256.84 L342.64 257.0373" clip-path="url(#clipPath2)"/>
    </g>
    <g text-rendering="geometricPrecision" stroke-miterlimit="1.45" shape-rendering="geometricPrecision" transform="matrix(1,0,0,1,-287,-10)" stroke-linecap="butt">
      <path d="M342.64 257.0373 L347.64 245.0373 L342.64 248.0373 L337.64 245.0373 Z" stroke="none" clip-path="url(#clipPath2)"/>
      <text x="345.7825" xml:space="preserve" y="187.0645" clip-path="url(#clipPath2)" font-family="sans-serif" stroke="none">CMD PROGRAM END</text>
      <path fill="none" d="M569 134.9688 L569 151.0053" clip-path="url(#clipPath2)"/>
      <path d="M569 159.0053 L574 147.0053 L569 150.0053 L564 147.0053 Z" clip-path="url(#clipPath2)" stroke="none"/>
      <path fill="none" d="M569 198.9688 L569 215.0053" clip-path="url(#clipPath2)"/>
      <path d="M569 223.0053 L574 211.0053 L569 214.0053 L564 211.0053 Z" clip-path="url(#clipPath2)" stroke="none"/>
      <path fill="none" d="M569 262.9688 L569 279.0053" clip-path="url(#clipPath2)"/>
      <path d="M569 287.0053 L574 275.0053 L569 278.0053 L564 275.0053 Z" clip-path="url(#clipPath2)" stroke="none"/>
      <path fill="none" d="M569 326.9644 L569 356.5 L710.5 356.5 L710.5 179 L654.4865 179" clip-path="url(#clipPath2)"/>
      <path d="M646.4865 179 L658.4865 184 L655.4865 179 L658.4865 174 Z" clip-path="url(#clipPath2)" stroke="none"/>
      <path fill="none" d="M569 64.9951 L569 87.0273" clip-path="url(#clipPath2)"/>
      <path d="M569 95.0273 L574 83.0273 L569 86.0273 L564 83.0273 Z" clip-path="url(#clipPath2)" stroke="none"/>
    </g>
  </g>
</svg>
