<?xml version="1.0" encoding="UTF-8"?><svg xmlns="http://www.w3.org/2000/svg" xmlns:xlink="http://www.w3.org/1999/xlink" fill-opacity="1" color-rendering="auto" color-interpolation="auto" text-rendering="auto" stroke="black" stroke-linecap="square" width="535" stroke-miterlimit="10" shape-rendering="auto" stroke-opacity="1" fill="black" stroke-dasharray="none" font-weight="normal" stroke-width="1" height="266" font-family="'Dialog'" font-style="normal" stroke-linejoin="miter" font-size="12px" stroke-dashoffset="0" image-rendering="auto">
  <!--Generated by ySVG 2.5-->
  <defs id="genericDefs"/>
  <g>
    <defs id="defs1">
      <clipPath clipPathUnits="userSpaceOnUse" id="clipPath1">
        <path d="M0 0 L535 0 L535 266 L0 266 L0 0 Z"/>
      </clipPath>
      <clipPath clipPathUnits="userSpaceOnUse" id="clipPath2">
        <path d="M302 261 L837 261 L837 527 L302 527 L302 261 Z"/>
      </clipPath>
    </defs>
    <g fill="white" text-rendering="geometricPrecision" shape-rendering="geometricPrecision" transform="translate(-302,-261)" stroke="white">
      <rect x="302" width="535" height="266" y="261" clip-path="url(#clipPath2)" stroke="none"/>
    </g>
    <g text-rendering="geometricPrecision" shape-rendering="geometricPrecision" transform="matrix(1,0,0,1,-302,-261)">
      <rect x="317.2099" y="469.2016" clip-path="url(#clipPath2)" width="504.4" rx="4" ry="4" height="42" stroke="none"/>
    </g>
    <g stroke-linecap="butt" transform="matrix(1,0,0,1,-302,-261)" fill="white" text-rendering="geometricPrecision" shape-rendering="geometricPrecision" stroke="white" stroke-miterlimit="1.45">
      <rect x="317.2099" y="469.2016" clip-path="url(#clipPath2)" fill="none" width="504.4" rx="4" ry="4" height="42"/>
      <text x="534.4089" xml:space="preserve" y="494.9155" clip-path="url(#clipPath2)" font-family="sans-serif" stroke="none">HARDWARE</text>
    </g>
    <g fill="rgb(209,52,56)" text-rendering="geometricPrecision" shape-rendering="geometricPrecision" transform="matrix(1,0,0,1,-302,-261)" stroke="rgb(209,52,56)">
      <rect x="317.2099" y="421.8016" clip-path="url(#clipPath2)" width="504.4" rx="4" ry="4" height="42" stroke="none"/>
    </g>
    <g stroke-linecap="butt" transform="matrix(1,0,0,1,-302,-261)" fill="rgb(117,11,28)" text-rendering="geometricPrecision" shape-rendering="geometricPrecision" stroke="rgb(117,11,28)" stroke-miterlimit="1.45">
      <rect x="317.2099" y="421.8016" clip-path="url(#clipPath2)" fill="none" width="504.4" rx="4" ry="4" height="42"/>
      <text x="530.0642" y="447.5155" clip-path="url(#clipPath2)" fill="white" font-family="sans-serif" stroke="none" xml:space="preserve">ESP32 Drivers</text>
    </g>
    <g fill="rgb(136,23,152)" text-rendering="geometricPrecision" shape-rendering="geometricPrecision" transform="matrix(1,0,0,1,-302,-261)" stroke="rgb(136,23,152)">
      <rect x="647.6198" y="373.2016" clip-path="url(#clipPath2)" width="173.9901" rx="4" ry="4" height="42" stroke="none"/>
    </g>
    <g stroke-linecap="butt" transform="matrix(1,0,0,1,-302,-261)" fill="rgb(57,57,57)" text-rendering="geometricPrecision" shape-rendering="geometricPrecision" stroke="rgb(57,57,57)" stroke-miterlimit="1.45">
      <rect x="647.6198" y="373.2016" clip-path="url(#clipPath2)" fill="none" width="173.9901" rx="4" ry="4" height="42"/>
      <text x="725.278" y="398.9155" clip-path="url(#clipPath2)" fill="white" font-family="sans-serif" stroke="none" xml:space="preserve">I2C</text>
    </g>
    <g fill="rgb(11,106,11)" text-rendering="geometricPrecision" shape-rendering="geometricPrecision" transform="matrix(1,0,0,1,-302,-261)" stroke="rgb(11,106,11)">
      <rect x="317.2099" y="276.0016" clip-path="url(#clipPath2)" width="504.4" rx="4" ry="4" height="42" stroke="none"/>
    </g>
    <g stroke-linecap="butt" transform="matrix(1,0,0,1,-302,-261)" fill="rgb(122,117,116)" text-rendering="geometricPrecision" shape-rendering="geometricPrecision" stroke="rgb(122,117,116)" stroke-miterlimit="1.45">
      <rect x="317.2099" y="276.0016" clip-path="url(#clipPath2)" fill="none" width="504.4" rx="4" ry="4" height="42"/>
    </g>
    <g stroke-linecap="butt" font-size="15px" transform="matrix(1,0,0,1,-302,-261)" fill="white" text-rendering="geometricPrecision" font-family="sans-serif" shape-rendering="geometricPrecision" stroke="white" stroke-miterlimit="1.45">
      <text x="535.2241" xml:space="preserve" y="302.8939" clip-path="url(#clipPath2)" stroke="none">Aplicación</text>
    </g>
    <g fill="rgb(0,91,112)" text-rendering="geometricPrecision" shape-rendering="geometricPrecision" transform="matrix(1,0,0,1,-302,-261)" stroke="rgb(0,91,112)">
      <rect x="458.2397" y="324.6016" clip-path="url(#clipPath2)" width="363.3703" rx="4" ry="4" height="42" stroke="none"/>
    </g>
    <g stroke-linecap="butt" transform="matrix(1,0,0,1,-302,-261)" fill="rgb(57,57,57)" text-rendering="geometricPrecision" shape-rendering="geometricPrecision" stroke="rgb(57,57,57)" stroke-miterlimit="1.45">
      <rect x="458.2397" y="324.6016" clip-path="url(#clipPath2)" fill="none" width="363.3703" rx="4" ry="4" height="42"/>
      <text x="612.5791" y="350.3155" clip-path="url(#clipPath2)" fill="white" font-family="sans-serif" stroke="none" xml:space="preserve">LSM6DSL</text>
    </g>
    <g fill="rgb(0,91,112)" text-rendering="geometricPrecision" shape-rendering="geometricPrecision" transform="matrix(1,0,0,1,-302,-261)" stroke="rgb(0,91,112)">
      <rect x="317.2099" y="324.6016" clip-path="url(#clipPath2)" width="125.6397" rx="4" ry="4" height="90.6" stroke="none"/>
    </g>
    <g stroke-linecap="butt" transform="matrix(1,0,0,1,-302,-261)" fill="rgb(57,57,57)" text-rendering="geometricPrecision" shape-rendering="geometricPrecision" stroke="rgb(57,57,57)" stroke-miterlimit="1.45">
      <rect x="317.2099" y="324.6016" clip-path="url(#clipPath2)" fill="none" width="125.6397" rx="4" ry="4" height="90.6"/>
      <text x="363.6967" y="374.6155" clip-path="url(#clipPath2)" fill="white" font-family="sans-serif" stroke="none" xml:space="preserve">UART</text>
    </g>
    <g fill="rgb(136,23,152)" text-rendering="geometricPrecision" shape-rendering="geometricPrecision" transform="matrix(1,0,0,1,-302,-261)" stroke="rgb(136,23,152)">
      <rect x="458.2397" y="373.2016" clip-path="url(#clipPath2)" width="173.9901" rx="4" ry="4" height="42" stroke="none"/>
    </g>
    <g stroke-linecap="butt" transform="matrix(1,0,0,1,-302,-261)" fill="rgb(57,57,57)" text-rendering="geometricPrecision" shape-rendering="geometricPrecision" stroke="rgb(57,57,57)" stroke-miterlimit="1.45">
      <rect x="458.2397" y="373.2016" clip-path="url(#clipPath2)" fill="none" width="173.9901" rx="4" ry="4" height="42"/>
      <text x="535.8978" y="398.9155" clip-path="url(#clipPath2)" fill="white" font-family="sans-serif" stroke="none" xml:space="preserve">I2C</text>
    </g>
  </g>
</svg>
