<?xml version="1.0" encoding="utf-8" standalone="no"?>
<!DOCTYPE svg PUBLIC "-//W3C//DTD SVG 1.1//EN"
  "http://www.w3.org/Graphics/SVG/1.1/DTD/svg11.dtd">
<svg height="578.16pt" version="1.1" viewBox="0 0 1152 578.16" width="1152pt" xmlns="http://www.w3.org/2000/svg" xmlns:xlink="http://www.w3.org/1999/xlink">
 <metadata>
  <rdf:RDF xmlns:cc="http://creativecommons.org/ns#" xmlns:dc="http://purl.org/dc/elements/1.1/" xmlns:rdf="http://www.w3.org/1999/02/22-rdf-syntax-ns#">
   <cc:Work>
    <dc:type rdf:resource="http://purl.org/dc/dcmitype/StillImage"/>
    <dc:date>2021-09-10T00:01:37.073274</dc:date>
    <dc:format>image/svg+xml</dc:format>
    <dc:creator>
     <cc:Agent>
      <dc:title>Matplotlib v3.4.1, https://matplotlib.org/</dc:title>
     </cc:Agent>
    </dc:creator>
   </cc:Work>
  </rdf:RDF>
 </metadata>
 <defs>
  <style type="text/css">*{stroke-linecap:butt;stroke-linejoin:round;}</style>
 </defs>
 <g id="figure_1">
  <g id="patch_1">
   <path d="M 0 578.16 
L 1152 578.16 
L 1152 0 
L 0 0 
z
" style="fill:#ffffff;"/>
  </g>
  <g id="axes_1">
   <g id="patch_2">
    <path d="M 144 514.5624 
L 1036.8 514.5624 
L 1036.8 69.3792 
L 144 69.3792 
z
" style="fill:#ffffff;"/>
   </g>
   <g id="matplotlib.axis_1">
    <g id="xtick_1">
     <g id="line2d_1">
      <path clip-path="url(#pe3bc59f365)" d="M 184.581818 514.5624 
L 184.581818 69.3792 
" style="fill:none;stroke:#b0b0b0;stroke-linecap:square;stroke-width:0.8;"/>
     </g>
     <g id="line2d_2">
      <defs>
       <path d="M 0 0 
L 0 3.5 
" id="meb9105f44e" style="stroke:#000000;stroke-width:0.8;"/>
      </defs>
      <g>
       <use style="stroke:#000000;stroke-width:0.8;" x="184.581818" xlink:href="#meb9105f44e" y="514.5624"/>
      </g>
     </g>
     <g id="text_1">
      <!-- 0 -->
      <g transform="translate(181.400568 529.160837)scale(0.1 -0.1)">
       <defs>
        <path d="M 2034 4250 
Q 1547 4250 1301 3770 
Q 1056 3291 1056 2328 
Q 1056 1369 1301 889 
Q 1547 409 2034 409 
Q 2525 409 2770 889 
Q 3016 1369 3016 2328 
Q 3016 3291 2770 3770 
Q 2525 4250 2034 4250 
z
M 2034 4750 
Q 2819 4750 3233 4129 
Q 3647 3509 3647 2328 
Q 3647 1150 3233 529 
Q 2819 -91 2034 -91 
Q 1250 -91 836 529 
Q 422 1150 422 2328 
Q 422 3509 836 4129 
Q 1250 4750 2034 4750 
z
" id="DejaVuSans-30" transform="scale(0.015625)"/>
       </defs>
       <use xlink:href="#DejaVuSans-30"/>
      </g>
     </g>
    </g>
    <g id="xtick_2">
     <g id="line2d_3">
      <path clip-path="url(#pe3bc59f365)" d="M 379.764786 514.5624 
L 379.764786 69.3792 
" style="fill:none;stroke:#b0b0b0;stroke-linecap:square;stroke-width:0.8;"/>
     </g>
     <g id="line2d_4">
      <g>
       <use style="stroke:#000000;stroke-width:0.8;" x="379.764786" xlink:href="#meb9105f44e" y="514.5624"/>
      </g>
     </g>
     <g id="text_2">
      <!-- 50 -->
      <g transform="translate(373.402286 529.160837)scale(0.1 -0.1)">
       <defs>
        <path d="M 691 4666 
L 3169 4666 
L 3169 4134 
L 1269 4134 
L 1269 2991 
Q 1406 3038 1543 3061 
Q 1681 3084 1819 3084 
Q 2600 3084 3056 2656 
Q 3513 2228 3513 1497 
Q 3513 744 3044 326 
Q 2575 -91 1722 -91 
Q 1428 -91 1123 -41 
Q 819 9 494 109 
L 494 744 
Q 775 591 1075 516 
Q 1375 441 1709 441 
Q 2250 441 2565 725 
Q 2881 1009 2881 1497 
Q 2881 1984 2565 2268 
Q 2250 2553 1709 2553 
Q 1456 2553 1204 2497 
Q 953 2441 691 2322 
L 691 4666 
z
" id="DejaVuSans-35" transform="scale(0.015625)"/>
       </defs>
       <use xlink:href="#DejaVuSans-35"/>
       <use x="63.623047" xlink:href="#DejaVuSans-30"/>
      </g>
     </g>
    </g>
    <g id="xtick_3">
     <g id="line2d_5">
      <path clip-path="url(#pe3bc59f365)" d="M 574.947755 514.5624 
L 574.947755 69.3792 
" style="fill:none;stroke:#b0b0b0;stroke-linecap:square;stroke-width:0.8;"/>
     </g>
     <g id="line2d_6">
      <g>
       <use style="stroke:#000000;stroke-width:0.8;" x="574.947755" xlink:href="#meb9105f44e" y="514.5624"/>
      </g>
     </g>
     <g id="text_3">
      <!-- 100 -->
      <g transform="translate(565.404005 529.160837)scale(0.1 -0.1)">
       <defs>
        <path d="M 794 531 
L 1825 531 
L 1825 4091 
L 703 3866 
L 703 4441 
L 1819 4666 
L 2450 4666 
L 2450 531 
L 3481 531 
L 3481 0 
L 794 0 
L 794 531 
z
" id="DejaVuSans-31" transform="scale(0.015625)"/>
       </defs>
       <use xlink:href="#DejaVuSans-31"/>
       <use x="63.623047" xlink:href="#DejaVuSans-30"/>
       <use x="127.246094" xlink:href="#DejaVuSans-30"/>
      </g>
     </g>
    </g>
    <g id="xtick_4">
     <g id="line2d_7">
      <path clip-path="url(#pe3bc59f365)" d="M 770.130723 514.5624 
L 770.130723 69.3792 
" style="fill:none;stroke:#b0b0b0;stroke-linecap:square;stroke-width:0.8;"/>
     </g>
     <g id="line2d_8">
      <g>
       <use style="stroke:#000000;stroke-width:0.8;" x="770.130723" xlink:href="#meb9105f44e" y="514.5624"/>
      </g>
     </g>
     <g id="text_4">
      <!-- 150 -->
      <g transform="translate(760.586973 529.160837)scale(0.1 -0.1)">
       <use xlink:href="#DejaVuSans-31"/>
       <use x="63.623047" xlink:href="#DejaVuSans-35"/>
       <use x="127.246094" xlink:href="#DejaVuSans-30"/>
      </g>
     </g>
    </g>
    <g id="xtick_5">
     <g id="line2d_9">
      <path clip-path="url(#pe3bc59f365)" d="M 965.313691 514.5624 
L 965.313691 69.3792 
" style="fill:none;stroke:#b0b0b0;stroke-linecap:square;stroke-width:0.8;"/>
     </g>
     <g id="line2d_10">
      <g>
       <use style="stroke:#000000;stroke-width:0.8;" x="965.313691" xlink:href="#meb9105f44e" y="514.5624"/>
      </g>
     </g>
     <g id="text_5">
      <!-- 200 -->
      <g transform="translate(955.769941 529.160837)scale(0.1 -0.1)">
       <defs>
        <path d="M 1228 531 
L 3431 531 
L 3431 0 
L 469 0 
L 469 531 
Q 828 903 1448 1529 
Q 2069 2156 2228 2338 
Q 2531 2678 2651 2914 
Q 2772 3150 2772 3378 
Q 2772 3750 2511 3984 
Q 2250 4219 1831 4219 
Q 1534 4219 1204 4116 
Q 875 4013 500 3803 
L 500 4441 
Q 881 4594 1212 4672 
Q 1544 4750 1819 4750 
Q 2544 4750 2975 4387 
Q 3406 4025 3406 3419 
Q 3406 3131 3298 2873 
Q 3191 2616 2906 2266 
Q 2828 2175 2409 1742 
Q 1991 1309 1228 531 
z
" id="DejaVuSans-32" transform="scale(0.015625)"/>
       </defs>
       <use xlink:href="#DejaVuSans-32"/>
       <use x="63.623047" xlink:href="#DejaVuSans-30"/>
       <use x="127.246094" xlink:href="#DejaVuSans-30"/>
      </g>
     </g>
    </g>
   </g>
   <g id="matplotlib.axis_2">
    <g id="ytick_1">
     <g id="line2d_11">
      <path clip-path="url(#pe3bc59f365)" d="M 144 439.468244 
L 1036.8 439.468244 
" style="fill:none;stroke:#b0b0b0;stroke-linecap:square;stroke-width:0.8;"/>
     </g>
     <g id="line2d_12">
      <defs>
       <path d="M 0 0 
L -3.5 0 
" id="m09e90dca83" style="stroke:#000000;stroke-width:0.8;"/>
      </defs>
      <g>
       <use style="stroke:#000000;stroke-width:0.8;" x="144" xlink:href="#m09e90dca83" y="439.468244"/>
      </g>
     </g>
     <g id="text_6">
      <!-- $\mathdefault{10^{1}}$ -->
      <g transform="translate(119.4 443.267463)scale(0.1 -0.1)">
       <use transform="translate(0 0.684375)" xlink:href="#DejaVuSans-31"/>
       <use transform="translate(63.623047 0.684375)" xlink:href="#DejaVuSans-30"/>
       <use transform="translate(128.203125 38.965625)scale(0.7)" xlink:href="#DejaVuSans-31"/>
      </g>
     </g>
    </g>
    <g id="ytick_2">
     <g id="line2d_13">
      <path clip-path="url(#pe3bc59f365)" d="M 144 349.898762 
L 1036.8 349.898762 
" style="fill:none;stroke:#b0b0b0;stroke-linecap:square;stroke-width:0.8;"/>
     </g>
     <g id="line2d_14">
      <g>
       <use style="stroke:#000000;stroke-width:0.8;" x="144" xlink:href="#m09e90dca83" y="349.898762"/>
      </g>
     </g>
     <g id="text_7">
      <!-- $\mathdefault{10^{2}}$ -->
      <g transform="translate(119.4 353.697981)scale(0.1 -0.1)">
       <use transform="translate(0 0.765625)" xlink:href="#DejaVuSans-31"/>
       <use transform="translate(63.623047 0.765625)" xlink:href="#DejaVuSans-30"/>
       <use transform="translate(128.203125 39.046875)scale(0.7)" xlink:href="#DejaVuSans-32"/>
      </g>
     </g>
    </g>
    <g id="ytick_3">
     <g id="line2d_15">
      <path clip-path="url(#pe3bc59f365)" d="M 144 260.329279 
L 1036.8 260.329279 
" style="fill:none;stroke:#b0b0b0;stroke-linecap:square;stroke-width:0.8;"/>
     </g>
     <g id="line2d_16">
      <g>
       <use style="stroke:#000000;stroke-width:0.8;" x="144" xlink:href="#m09e90dca83" y="260.329279"/>
      </g>
     </g>
     <g id="text_8">
      <!-- $\mathdefault{10^{3}}$ -->
      <g transform="translate(119.4 264.128498)scale(0.1 -0.1)">
       <defs>
        <path d="M 2597 2516 
Q 3050 2419 3304 2112 
Q 3559 1806 3559 1356 
Q 3559 666 3084 287 
Q 2609 -91 1734 -91 
Q 1441 -91 1130 -33 
Q 819 25 488 141 
L 488 750 
Q 750 597 1062 519 
Q 1375 441 1716 441 
Q 2309 441 2620 675 
Q 2931 909 2931 1356 
Q 2931 1769 2642 2001 
Q 2353 2234 1838 2234 
L 1294 2234 
L 1294 2753 
L 1863 2753 
Q 2328 2753 2575 2939 
Q 2822 3125 2822 3475 
Q 2822 3834 2567 4026 
Q 2313 4219 1838 4219 
Q 1578 4219 1281 4162 
Q 984 4106 628 3988 
L 628 4550 
Q 988 4650 1302 4700 
Q 1616 4750 1894 4750 
Q 2613 4750 3031 4423 
Q 3450 4097 3450 3541 
Q 3450 3153 3228 2886 
Q 3006 2619 2597 2516 
z
" id="DejaVuSans-33" transform="scale(0.015625)"/>
       </defs>
       <use transform="translate(0 0.765625)" xlink:href="#DejaVuSans-31"/>
       <use transform="translate(63.623047 0.765625)" xlink:href="#DejaVuSans-30"/>
       <use transform="translate(128.203125 39.046875)scale(0.7)" xlink:href="#DejaVuSans-33"/>
      </g>
     </g>
    </g>
    <g id="ytick_4">
     <g id="line2d_17">
      <path clip-path="url(#pe3bc59f365)" d="M 144 170.759797 
L 1036.8 170.759797 
" style="fill:none;stroke:#b0b0b0;stroke-linecap:square;stroke-width:0.8;"/>
     </g>
     <g id="line2d_18">
      <g>
       <use style="stroke:#000000;stroke-width:0.8;" x="144" xlink:href="#m09e90dca83" y="170.759797"/>
      </g>
     </g>
     <g id="text_9">
      <!-- $\mathdefault{10^{4}}$ -->
      <g transform="translate(119.4 174.559016)scale(0.1 -0.1)">
       <defs>
        <path d="M 2419 4116 
L 825 1625 
L 2419 1625 
L 2419 4116 
z
M 2253 4666 
L 3047 4666 
L 3047 1625 
L 3713 1625 
L 3713 1100 
L 3047 1100 
L 3047 0 
L 2419 0 
L 2419 1100 
L 313 1100 
L 313 1709 
L 2253 4666 
z
" id="DejaVuSans-34" transform="scale(0.015625)"/>
       </defs>
       <use transform="translate(0 0.684375)" xlink:href="#DejaVuSans-31"/>
       <use transform="translate(63.623047 0.684375)" xlink:href="#DejaVuSans-30"/>
       <use transform="translate(128.203125 38.965625)scale(0.7)" xlink:href="#DejaVuSans-34"/>
      </g>
     </g>
    </g>
    <g id="ytick_5">
     <g id="line2d_19">
      <path clip-path="url(#pe3bc59f365)" d="M 144 81.190314 
L 1036.8 81.190314 
" style="fill:none;stroke:#b0b0b0;stroke-linecap:square;stroke-width:0.8;"/>
     </g>
     <g id="line2d_20">
      <g>
       <use style="stroke:#000000;stroke-width:0.8;" x="144" xlink:href="#m09e90dca83" y="81.190314"/>
      </g>
     </g>
     <g id="text_10">
      <!-- $\mathdefault{10^{5}}$ -->
      <g transform="translate(119.4 84.989533)scale(0.1 -0.1)">
       <use transform="translate(0 0.684375)" xlink:href="#DejaVuSans-31"/>
       <use transform="translate(63.623047 0.684375)" xlink:href="#DejaVuSans-30"/>
       <use transform="translate(128.203125 38.965625)scale(0.7)" xlink:href="#DejaVuSans-35"/>
      </g>
     </g>
    </g>
    <g id="ytick_6">
     <g id="line2d_21">
      <defs>
       <path d="M 0 0 
L -2 0 
" id="m21d4488477" style="stroke:#000000;stroke-width:0.6;"/>
      </defs>
      <g>
       <use style="stroke:#000000;stroke-width:0.6;" x="144" xlink:href="#m21d4488477" y="502.074626"/>
      </g>
     </g>
    </g>
    <g id="ytick_7">
     <g id="line2d_22">
      <g>
       <use style="stroke:#000000;stroke-width:0.6;" x="144" xlink:href="#m21d4488477" y="486.302223"/>
      </g>
     </g>
    </g>
    <g id="ytick_8">
     <g id="line2d_23">
      <g>
       <use style="stroke:#000000;stroke-width:0.6;" x="144" xlink:href="#m21d4488477" y="475.111525"/>
      </g>
     </g>
    </g>
    <g id="ytick_9">
     <g id="line2d_24">
      <g>
       <use style="stroke:#000000;stroke-width:0.6;" x="144" xlink:href="#m21d4488477" y="466.431345"/>
      </g>
     </g>
    </g>
    <g id="ytick_10">
     <g id="line2d_25">
      <g>
       <use style="stroke:#000000;stroke-width:0.6;" x="144" xlink:href="#m21d4488477" y="459.339122"/>
      </g>
     </g>
    </g>
    <g id="ytick_11">
     <g id="line2d_26">
      <g>
       <use style="stroke:#000000;stroke-width:0.6;" x="144" xlink:href="#m21d4488477" y="453.342733"/>
      </g>
     </g>
    </g>
    <g id="ytick_12">
     <g id="line2d_27">
      <g>
       <use style="stroke:#000000;stroke-width:0.6;" x="144" xlink:href="#m21d4488477" y="448.148424"/>
      </g>
     </g>
    </g>
    <g id="ytick_13">
     <g id="line2d_28">
      <g>
       <use style="stroke:#000000;stroke-width:0.6;" x="144" xlink:href="#m21d4488477" y="443.566719"/>
      </g>
     </g>
    </g>
    <g id="ytick_14">
     <g id="line2d_29">
      <g>
       <use style="stroke:#000000;stroke-width:0.6;" x="144" xlink:href="#m21d4488477" y="412.505144"/>
      </g>
     </g>
    </g>
    <g id="ytick_15">
     <g id="line2d_30">
      <g>
       <use style="stroke:#000000;stroke-width:0.6;" x="144" xlink:href="#m21d4488477" y="396.732741"/>
      </g>
     </g>
    </g>
    <g id="ytick_16">
     <g id="line2d_31">
      <g>
       <use style="stroke:#000000;stroke-width:0.6;" x="144" xlink:href="#m21d4488477" y="385.542043"/>
      </g>
     </g>
    </g>
    <g id="ytick_17">
     <g id="line2d_32">
      <g>
       <use style="stroke:#000000;stroke-width:0.6;" x="144" xlink:href="#m21d4488477" y="376.861863"/>
      </g>
     </g>
    </g>
    <g id="ytick_18">
     <g id="line2d_33">
      <g>
       <use style="stroke:#000000;stroke-width:0.6;" x="144" xlink:href="#m21d4488477" y="369.76964"/>
      </g>
     </g>
    </g>
    <g id="ytick_19">
     <g id="line2d_34">
      <g>
       <use style="stroke:#000000;stroke-width:0.6;" x="144" xlink:href="#m21d4488477" y="363.77325"/>
      </g>
     </g>
    </g>
    <g id="ytick_20">
     <g id="line2d_35">
      <g>
       <use style="stroke:#000000;stroke-width:0.6;" x="144" xlink:href="#m21d4488477" y="358.578942"/>
      </g>
     </g>
    </g>
    <g id="ytick_21">
     <g id="line2d_36">
      <g>
       <use style="stroke:#000000;stroke-width:0.6;" x="144" xlink:href="#m21d4488477" y="353.997237"/>
      </g>
     </g>
    </g>
    <g id="ytick_22">
     <g id="line2d_37">
      <g>
       <use style="stroke:#000000;stroke-width:0.6;" x="144" xlink:href="#m21d4488477" y="322.935661"/>
      </g>
     </g>
    </g>
    <g id="ytick_23">
     <g id="line2d_38">
      <g>
       <use style="stroke:#000000;stroke-width:0.6;" x="144" xlink:href="#m21d4488477" y="307.163258"/>
      </g>
     </g>
    </g>
    <g id="ytick_24">
     <g id="line2d_39">
      <g>
       <use style="stroke:#000000;stroke-width:0.6;" x="144" xlink:href="#m21d4488477" y="295.97256"/>
      </g>
     </g>
    </g>
    <g id="ytick_25">
     <g id="line2d_40">
      <g>
       <use style="stroke:#000000;stroke-width:0.6;" x="144" xlink:href="#m21d4488477" y="287.29238"/>
      </g>
     </g>
    </g>
    <g id="ytick_26">
     <g id="line2d_41">
      <g>
       <use style="stroke:#000000;stroke-width:0.6;" x="144" xlink:href="#m21d4488477" y="280.200157"/>
      </g>
     </g>
    </g>
    <g id="ytick_27">
     <g id="line2d_42">
      <g>
       <use style="stroke:#000000;stroke-width:0.6;" x="144" xlink:href="#m21d4488477" y="274.203768"/>
      </g>
     </g>
    </g>
    <g id="ytick_28">
     <g id="line2d_43">
      <g>
       <use style="stroke:#000000;stroke-width:0.6;" x="144" xlink:href="#m21d4488477" y="269.009459"/>
      </g>
     </g>
    </g>
    <g id="ytick_29">
     <g id="line2d_44">
      <g>
       <use style="stroke:#000000;stroke-width:0.6;" x="144" xlink:href="#m21d4488477" y="264.427754"/>
      </g>
     </g>
    </g>
    <g id="ytick_30">
     <g id="line2d_45">
      <g>
       <use style="stroke:#000000;stroke-width:0.6;" x="144" xlink:href="#m21d4488477" y="233.366178"/>
      </g>
     </g>
    </g>
    <g id="ytick_31">
     <g id="line2d_46">
      <g>
       <use style="stroke:#000000;stroke-width:0.6;" x="144" xlink:href="#m21d4488477" y="217.593776"/>
      </g>
     </g>
    </g>
    <g id="ytick_32">
     <g id="line2d_47">
      <g>
       <use style="stroke:#000000;stroke-width:0.6;" x="144" xlink:href="#m21d4488477" y="206.403078"/>
      </g>
     </g>
    </g>
    <g id="ytick_33">
     <g id="line2d_48">
      <g>
       <use style="stroke:#000000;stroke-width:0.6;" x="144" xlink:href="#m21d4488477" y="197.722898"/>
      </g>
     </g>
    </g>
    <g id="ytick_34">
     <g id="line2d_49">
      <g>
       <use style="stroke:#000000;stroke-width:0.6;" x="144" xlink:href="#m21d4488477" y="190.630675"/>
      </g>
     </g>
    </g>
    <g id="ytick_35">
     <g id="line2d_50">
      <g>
       <use style="stroke:#000000;stroke-width:0.6;" x="144" xlink:href="#m21d4488477" y="184.634285"/>
      </g>
     </g>
    </g>
    <g id="ytick_36">
     <g id="line2d_51">
      <g>
       <use style="stroke:#000000;stroke-width:0.6;" x="144" xlink:href="#m21d4488477" y="179.439977"/>
      </g>
     </g>
    </g>
    <g id="ytick_37">
     <g id="line2d_52">
      <g>
       <use style="stroke:#000000;stroke-width:0.6;" x="144" xlink:href="#m21d4488477" y="174.858272"/>
      </g>
     </g>
    </g>
    <g id="ytick_38">
     <g id="line2d_53">
      <g>
       <use style="stroke:#000000;stroke-width:0.6;" x="144" xlink:href="#m21d4488477" y="143.796696"/>
      </g>
     </g>
    </g>
    <g id="ytick_39">
     <g id="line2d_54">
      <g>
       <use style="stroke:#000000;stroke-width:0.6;" x="144" xlink:href="#m21d4488477" y="128.024293"/>
      </g>
     </g>
    </g>
    <g id="ytick_40">
     <g id="line2d_55">
      <g>
       <use style="stroke:#000000;stroke-width:0.6;" x="144" xlink:href="#m21d4488477" y="116.833595"/>
      </g>
     </g>
    </g>
    <g id="ytick_41">
     <g id="line2d_56">
      <g>
       <use style="stroke:#000000;stroke-width:0.6;" x="144" xlink:href="#m21d4488477" y="108.153415"/>
      </g>
     </g>
    </g>
    <g id="ytick_42">
     <g id="line2d_57">
      <g>
       <use style="stroke:#000000;stroke-width:0.6;" x="144" xlink:href="#m21d4488477" y="101.061192"/>
      </g>
     </g>
    </g>
    <g id="ytick_43">
     <g id="line2d_58">
      <g>
       <use style="stroke:#000000;stroke-width:0.6;" x="144" xlink:href="#m21d4488477" y="95.064803"/>
      </g>
     </g>
    </g>
    <g id="ytick_44">
     <g id="line2d_59">
      <g>
       <use style="stroke:#000000;stroke-width:0.6;" x="144" xlink:href="#m21d4488477" y="89.870494"/>
      </g>
     </g>
    </g>
    <g id="ytick_45">
     <g id="line2d_60">
      <g>
       <use style="stroke:#000000;stroke-width:0.6;" x="144" xlink:href="#m21d4488477" y="85.288789"/>
      </g>
     </g>
    </g>
   </g>
   <g id="line2d_61">
    <path clip-path="url(#pe3bc59f365)" d="M 184.581818 171.372637 
L 184.906603 248.2135 
L 185.231387 267.860692 
L 185.556172 241.70891 
L 185.880956 240.059985 
L 186.20574 276.757591 
L 186.530525 226.637733 
L 186.855309 290.662507 
L 187.180094 250.417979 
L 187.504878 279.8597 
L 187.829663 230.50509 
L 188.154447 241.655649 
L 188.479232 371.353573 
L 188.804016 255.367236 
L 189.128801 269.45593 
L 189.453585 273.543929 
L 189.77837 282.792454 
L 190.103154 252.836744 
L 190.427938 239.470139 
L 191.077507 271.411853 
L 191.402292 274.800966 
L 191.727076 303.747171 
L 192.051861 247.390048 
L 192.376645 298.513849 
L 192.70143 261.623978 
L 193.026214 254.071058 
L 193.350999 284.743822 
L 193.675783 276.505132 
L 194.000567 247.591121 
L 194.325352 258.515979 
L 194.650136 254.71062 
L 194.974921 253.611906 
L 195.299705 246.316909 
L 195.62449 249.363682 
L 195.949274 272.840207 
L 196.274059 284.947466 
L 196.923628 256.56072 
L 197.248412 298.492141 
L 197.573197 286.503102 
L 197.897981 257.369025 
L 198.222765 287.073793 
L 198.54755 231.903428 
L 199.197119 304.405886 
L 199.521903 245.115856 
L 199.846688 263.177733 
L 200.171472 232.751912 
L 200.496257 240.182588 
L 200.821041 284.185917 
L 201.145826 259.131462 
L 201.47061 251.99121 
L 201.795395 276.037202 
L 202.120179 287.716663 
L 202.444963 305.894563 
L 202.769748 268.458247 
L 203.094532 259.123787 
L 203.419317 279.416157 
L 203.744101 288.956171 
L 204.39367 264.85954 
L 205.043239 253.673767 
L 205.368024 238.074676 
L 205.692808 296.221811 
L 206.342377 270.121318 
L 206.667161 271.878417 
L 206.991946 296.314011 
L 207.31673 302.233934 
L 207.641515 256.260603 
L 207.966299 268.45597 
L 208.291084 249.103357 
L 208.615868 273.093951 
L 208.940653 229.897856 
L 209.265437 265.766393 
L 209.590222 254.541662 
L 209.915006 272.999007 
L 210.23979 278.979118 
L 210.564575 289.854285 
L 210.889359 307.642921 
L 211.214144 241.440936 
L 211.538928 329.375889 
L 211.863713 318.547811 
L 212.188497 276.462325 
L 212.513282 284.310848 
L 212.838066 279.020113 
L 213.162851 267.148422 
L 213.487635 228.541037 
L 213.81242 265.304133 
L 214.137204 248.946666 
L 214.786773 298.877621 
L 215.111557 267.856075 
L 215.436342 303.763834 
L 215.761126 272.512762 
L 216.085911 264.899145 
L 216.410695 248.070981 
L 216.73548 277.820646 
L 217.060264 351.146579 
L 217.385049 267.374586 
L 217.709833 248.532267 
L 218.034617 320.838794 
L 218.359402 340.832347 
L 218.684186 256.28476 
L 219.008971 271.329714 
L 219.333755 243.42427 
L 219.65854 272.78962 
L 219.983324 275.003276 
L 220.308109 257.637976 
L 220.632893 303.058532 
L 220.957678 271.759117 
L 221.282462 261.241813 
L 221.607247 258.220741 
L 221.932031 279.419954 
L 222.256815 340.369032 
L 222.5816 282.767179 
L 222.906384 312.135045 
L 223.231169 261.731228 
L 223.555953 263.965286 
L 223.880738 252.509038 
L 224.205522 307.50968 
L 224.530307 253.914045 
L 224.855091 291.66326 
L 225.179876 270.995131 
L 225.50466 264.900622 
L 225.829445 248.177612 
L 226.154229 259.421527 
L 226.479013 251.890928 
L 226.803798 256.025012 
L 227.128582 245.19811 
L 227.453367 252.69874 
L 227.778151 268.197717 
L 228.102936 292.242931 
L 228.42772 292.475691 
L 228.752505 309.886959 
L 229.077289 257.37077 
L 229.402074 264.327719 
L 229.726858 252.458153 
L 230.051642 303.084526 
L 230.376427 285.831287 
L 230.701211 276.63453 
L 231.025996 274.038837 
L 231.35078 262.997032 
L 231.675565 274.185465 
L 232.000349 313.63454 
L 232.325134 243.847715 
L 232.649918 277.105776 
L 232.974703 244.096348 
L 233.299487 268.939965 
L 233.624272 270.487739 
L 233.949056 272.821439 
L 234.27384 296.241195 
L 234.598625 263.821739 
L 234.923409 295.860697 
L 235.248194 248.457604 
L 235.572978 277.332895 
L 235.897763 280.854167 
L 236.222547 262.526302 
L 236.547332 275.159655 
L 236.872116 268.826488 
L 237.196901 274.389861 
L 237.521685 250.222017 
L 237.846469 249.027914 
L 238.171254 239.353422 
L 238.496038 274.374939 
L 238.820823 274.414759 
L 239.145607 273.306467 
L 239.470392 322.553359 
L 239.795176 247.054166 
L 240.119961 268.589095 
L 240.444745 311.904518 
L 240.76953 271.839028 
L 241.419099 252.349466 
L 241.743883 261.293115 
L 242.068667 253.275557 
L 242.393452 256.435693 
L 242.718236 251.489935 
L 243.043021 242.101102 
L 243.367805 250.019114 
L 243.69259 308.892629 
L 244.017374 308.73681 
L 244.342159 307.411741 
L 244.666943 246.432902 
L 244.991728 254.889005 
L 245.316512 288.378667 
L 245.641297 292.741336 
L 245.966081 284.418352 
L 246.290865 253.18947 
L 246.940434 314.490097 
L 247.265219 257.482243 
L 247.590003 286.525995 
L 247.914788 240.604645 
L 248.239572 294.118491 
L 248.564357 299.246008 
L 248.889141 265.953892 
L 249.213926 265.463345 
L 249.53871 242.13887 
L 249.863494 284.854041 
L 250.188279 281.848475 
L 250.513063 282.817033 
L 250.837848 245.059895 
L 251.162632 286.242451 
L 251.487417 309.373171 
L 251.812201 255.321569 
L 252.136986 257.501856 
L 252.46177 284.540843 
L 252.786555 268.347106 
L 253.111339 315.568147 
L 253.436124 267.516304 
L 253.760908 279.836075 
L 254.410477 243.381678 
L 255.060046 316.881979 
L 255.38483 234.930765 
L 255.709615 301.603322 
L 256.034399 263.925904 
L 256.359184 259.296962 
L 256.683968 245.386125 
L 257.008753 293.822377 
L 257.333537 266.635217 
L 257.658322 291.055539 
L 257.983106 261.041211 
L 258.632675 302.051019 
L 258.957459 259.265934 
L 259.282244 257.594011 
L 259.607028 232.189396 
L 259.931813 258.229324 
L 260.256597 300.940287 
L 260.581382 263.790727 
L 261.230951 240.240788 
L 261.555735 265.243864 
L 261.880519 256.769516 
L 262.205304 257.654517 
L 262.530088 270.325606 
L 262.854873 248.523026 
L 263.179657 281.324477 
L 263.504442 265.562916 
L 263.829226 314.238405 
L 264.154011 252.466355 
L 264.478795 259.75598 
L 264.80358 249.069805 
L 265.128364 251.028655 
L 265.453149 243.403186 
L 265.777933 279.531707 
L 266.102717 248.377208 
L 266.427502 266.997654 
L 266.752286 263.589656 
L 267.077071 250.312095 
L 267.401855 256.967898 
L 267.72664 340.050678 
L 268.051424 258.864908 
L 268.376209 311.359421 
L 268.700993 268.531338 
L 269.025778 265.848826 
L 269.350562 267.831307 
L 269.675347 276.768695 
L 270.000131 260.476451 
L 270.324915 261.418572 
L 270.6497 296.586757 
L 270.974484 267.913031 
L 271.299269 249.351396 
L 271.624053 312.119277 
L 271.948838 275.388701 
L 272.273622 254.906129 
L 272.598407 260.548921 
L 272.923191 242.737661 
L 273.247976 243.002298 
L 273.57276 242.492663 
L 273.897544 275.450787 
L 274.222329 242.922101 
L 274.871898 280.246658 
L 275.196682 347.938999 
L 275.521467 242.151575 
L 275.846251 233.476627 
L 276.171036 303.710107 
L 276.49582 278.201591 
L 276.820605 273.913199 
L 277.470174 287.475455 
L 277.794958 269.365224 
L 278.119742 270.293919 
L 278.444527 266.840376 
L 278.769311 225.76654 
L 279.094096 252.444155 
L 279.743665 265.208468 
L 280.068449 295.993012 
L 280.393234 264.503941 
L 280.718018 303.958842 
L 281.042803 274.191121 
L 281.367587 280.113186 
L 281.692371 318.343727 
L 282.017156 270.468053 
L 282.34194 289.045935 
L 282.666725 235.853438 
L 283.316294 291.079827 
L 283.641078 259.519868 
L 283.965863 268.045354 
L 284.290647 284.978682 
L 284.615432 255.024136 
L 284.940216 251.388293 
L 285.265001 267.964913 
L 285.589785 267.515134 
L 285.914569 285.403485 
L 286.239354 242.779228 
L 286.564138 249.383549 
L 286.888923 307.874353 
L 287.213707 256.532484 
L 287.863276 271.346791 
L 288.188061 297.460058 
L 288.512845 262.637474 
L 288.83763 242.046936 
L 289.162414 245.93814 
L 289.487199 268.231158 
L 289.811983 243.857059 
L 290.136767 254.413111 
L 290.461552 236.709893 
L 291.111121 315.22789 
L 291.435905 257.281862 
L 291.76069 280.730637 
L 292.085474 277.519571 
L 292.410259 241.788699 
L 292.735043 273.520746 
L 293.059828 260.712044 
L 293.384612 257.647198 
L 293.709396 297.743721 
L 294.034181 280.547337 
L 294.68375 227.930302 
L 295.008534 277.54401 
L 295.333319 250.280714 
L 295.658103 301.701797 
L 296.307672 252.353802 
L 296.632457 340.619445 
L 296.957241 244.349193 
L 297.282026 253.681794 
L 297.60681 290.582765 
L 297.931594 271.07705 
L 298.256379 275.511111 
L 298.581163 317.240094 
L 298.905948 223.322691 
L 299.230732 354.390132 
L 299.555517 233.266455 
L 299.880301 240.600155 
L 300.205086 273.162524 
L 300.52987 258.766482 
L 300.854655 234.60631 
L 301.179439 255.322669 
L 301.504224 265.112701 
L 301.829008 219.382518 
L 302.478577 257.306765 
L 302.803361 278.393287 
L 303.128146 278.597964 
L 303.45293 298.683641 
L 303.777715 260.181509 
L 304.102499 266.433052 
L 304.427284 307.676372 
L 304.752068 234.514933 
L 305.076853 276.543357 
L 305.401637 281.04319 
L 305.726421 272.426466 
L 306.051206 304.339731 
L 306.37599 320.752938 
L 306.700775 262.705955 
L 307.025559 267.506691 
L 307.350344 279.380675 
L 307.675128 247.676048 
L 307.999913 266.285258 
L 308.324697 255.425863 
L 308.649482 250.249448 
L 308.974266 279.423362 
L 309.299051 258.076647 
L 309.623835 285.107944 
L 309.948619 237.344037 
L 310.273404 297.365865 
L 310.598188 304.851454 
L 310.922973 265.715168 
L 311.247757 264.513524 
L 311.572542 333.164864 
L 311.897326 273.652085 
L 312.222111 262.392568 
L 312.546895 255.759584 
L 312.87168 321.656201 
L 313.196464 282.221313 
L 313.521248 257.705128 
L 313.846033 290.295244 
L 314.170817 242.441477 
L 314.495602 301.223871 
L 314.820386 309.51898 
L 315.145171 280.730766 
L 315.469955 274.20789 
L 315.79474 252.382784 
L 316.119524 258.697686 
L 316.444309 282.310456 
L 316.769093 272.613223 
L 317.093878 241.246704 
L 317.418662 253.073922 
L 317.743446 289.918454 
L 318.068231 279.767214 
L 318.393015 329.583845 
L 318.7178 280.575255 
L 319.042584 261.409725 
L 319.367369 254.738721 
L 319.692153 259.663198 
L 320.016938 276.318948 
L 320.341722 254.470188 
L 320.666507 270.739288 
L 320.991291 265.455151 
L 321.316076 255.940586 
L 321.64086 267.855521 
L 321.965644 287.706613 
L 322.290429 266.639054 
L 322.615213 256.503719 
L 322.939998 295.980825 
L 323.264782 260.792311 
L 323.589567 255.528038 
L 323.914351 223.061052 
L 324.239136 252.173859 
L 324.56392 247.404871 
L 324.888705 249.234059 
L 325.213489 258.994986 
L 325.863058 293.728526 
L 326.187842 247.435028 
L 326.512627 288.50409 
L 326.837411 256.59978 
L 327.162196 298.783173 
L 327.48698 261.493678 
L 327.811765 316.305476 
L 328.136549 280.003014 
L 328.461334 283.049008 
L 328.786118 235.610639 
L 329.435687 283.172944 
L 329.760471 267.401509 
L 330.085256 257.370295 
L 330.41004 260.133279 
L 330.734825 282.169591 
L 331.059609 250.974764 
L 331.384394 259.718228 
L 331.709178 232.577602 
L 332.033963 260.27193 
L 332.358747 243.222056 
L 332.683532 296.155844 
L 333.008316 275.315912 
L 333.333101 220.949175 
L 333.657885 229.05306 
L 333.982669 258.45848 
L 334.307454 235.481542 
L 334.632238 256.707274 
L 334.957023 267.217447 
L 335.281807 267.436285 
L 335.606592 271.768797 
L 335.931376 262.442972 
L 336.256161 233.379978 
L 337.555298 281.614917 
L 337.880083 217.229315 
L 338.204867 241.543084 
L 338.529652 242.117634 
L 338.854436 261.620112 
L 339.179221 246.934777 
L 339.504005 256.642525 
L 339.82879 221.108869 
L 340.153574 214.248347 
L 340.478359 220.226429 
L 340.803143 233.899304 
L 341.127928 225.910217 
L 341.452712 248.712183 
L 342.102281 192.090337 
L 342.427065 208.567153 
L 342.75185 256.821377 
L 343.076634 200.157587 
L 343.401419 205.090735 
L 343.726203 192.329492 
L 344.050988 228.999467 
L 344.375772 218.561785 
L 344.700557 221.572244 
L 345.025341 219.364887 
L 345.350126 196.26974 
L 345.67491 224.861296 
L 345.999694 209.420721 
L 346.324479 231.585375 
L 346.649263 222.643249 
L 346.974048 254.605327 
L 347.298832 233.584388 
L 347.623617 200.418675 
L 347.948401 289.325348 
L 348.273186 226.566882 
L 348.59797 233.806533 
L 348.922755 206.684815 
L 349.247539 225.882675 
L 349.572323 225.759755 
L 349.897108 252.553009 
L 350.221892 265.798802 
L 350.546677 242.447839 
L 350.871461 199.828386 
L 351.196246 242.038933 
L 351.52103 200.565014 
L 351.845815 209.653558 
L 352.170599 183.500003 
L 352.495384 207.863882 
L 352.820168 254.015694 
L 353.144953 198.874276 
L 353.794521 221.315136 
L 354.119306 220.857549 
L 354.44409 210.042335 
L 354.768875 231.327757 
L 355.093659 232.869661 
L 355.418444 220.988554 
L 355.743228 164.580286 
L 356.068013 166.648317 
L 356.392797 195.260872 
L 356.717582 198.933079 
L 357.042366 231.468397 
L 357.36715 212.621384 
L 357.691935 225.511171 
L 358.016719 202.569798 
L 358.341504 220.611213 
L 358.666288 188.217534 
L 358.991073 175.150883 
L 359.315857 174.542426 
L 359.965426 162.729059 
L 360.290211 193.721082 
L 360.614995 276.454717 
L 360.93978 192.93203 
L 361.264564 184.062688 
L 361.589348 179.855615 
L 361.914133 199.438898 
L 362.238917 175.096987 
L 362.563702 264.482489 
L 362.888486 173.335801 
L 363.213271 215.440409 
L 363.538055 196.495749 
L 363.86284 167.79882 
L 364.187624 193.537447 
L 364.512409 180.411846 
L 364.837193 211.602854 
L 365.161978 164.626818 
L 365.486762 182.152225 
L 366.136331 242.552418 
L 366.461115 254.692341 
L 366.7859 191.224611 
L 367.110684 180.860094 
L 367.435469 174.829716 
L 367.760253 236.106541 
L 368.085038 194.038274 
L 368.409822 204.901549 
L 368.734607 200.539699 
L 369.059391 182.851408 
L 369.384175 205.104917 
L 369.70896 218.528295 
L 370.033744 175.155607 
L 370.358529 176.470072 
L 370.683313 218.695888 
L 371.008098 173.701497 
L 371.332882 192.813086 
L 371.657667 189.789512 
L 371.982451 228.311573 
L 372.307236 180.525506 
L 372.63202 179.535325 
L 372.956805 205.778109 
L 373.606373 228.857252 
L 373.931158 215.617253 
L 374.255942 197.692583 
L 374.580727 202.786447 
L 374.905511 217.111556 
L 375.230296 205.270778 
L 375.55508 208.306128 
L 375.879865 227.047292 
L 376.204649 238.189462 
L 376.529434 240.991794 
L 376.854218 262.080983 
L 377.179003 266.289487 
L 377.828571 204.966306 
L 378.153356 237.745129 
L 378.47814 247.79926 
L 378.802925 246.428829 
L 379.127709 229.150481 
L 379.452494 225.859767 
L 379.777278 211.146877 
L 380.102063 235.067901 
L 380.426847 192.50236 
L 380.751632 229.478142 
L 381.076416 253.254617 
L 381.4012 220.778902 
L 381.725985 238.804115 
L 382.050769 217.685991 
L 382.375554 221.812866 
L 382.700338 262.877585 
L 383.025123 288.900847 
L 383.349907 236.347373 
L 383.674692 229.697392 
L 383.999476 275.338435 
L 384.324261 254.509362 
L 384.649045 223.584501 
L 384.97383 253.46955 
L 385.298614 244.596119 
L 385.623398 263.192118 
L 385.948183 233.086587 
L 386.272967 248.188365 
L 386.597752 277.577012 
L 386.922536 232.419504 
L 387.247321 223.638581 
L 387.572105 277.359063 
L 387.89689 247.877475 
L 388.221674 259.890235 
L 388.546459 229.083055 
L 389.520812 269.23874 
L 389.845596 260.350615 
L 390.170381 275.854545 
L 390.495165 253.779565 
L 390.81995 330.362002 
L 391.144734 224.131547 
L 391.469519 299.359348 
L 391.794303 258.423833 
L 392.119088 253.952352 
L 392.443872 247.135444 
L 392.768657 226.071127 
L 393.093441 239.639427 
L 393.418225 269.922596 
L 393.74301 280.448868 
L 394.067794 258.997039 
L 394.392579 265.098837 
L 394.717363 253.490493 
L 395.042148 253.192011 
L 395.366932 274.058589 
L 395.691717 233.023877 
L 396.016501 241.160558 
L 396.341286 228.153792 
L 396.66607 287.574953 
L 396.990855 303.043257 
L 397.640423 237.438858 
L 397.965208 232.205637 
L 398.289992 260.781986 
L 398.614777 261.268218 
L 398.939561 225.400016 
L 399.264346 336.397624 
L 399.58913 243.499604 
L 399.913915 260.623338 
L 400.238699 241.843122 
L 400.563484 270.60021 
L 400.888268 241.163953 
L 401.537837 228.759908 
L 401.862621 291.068761 
L 402.187406 233.41036 
L 402.51219 223.090895 
L 402.836975 235.566505 
L 403.161759 254.472776 
L 403.486544 264.499287 
L 403.811328 269.511313 
L 404.136113 236.323953 
L 404.460897 242.653798 
L 404.785682 228.023439 
L 405.110466 272.245531 
L 405.760035 240.421653 
L 406.084819 311.134898 
L 406.409604 272.250805 
L 406.734388 333.301713 
L 407.059173 227.686643 
L 407.383957 236.558419 
L 407.708742 248.597484 
L 408.033526 229.104389 
L 408.358311 236.817472 
L 408.683095 275.10106 
L 409.00788 245.152256 
L 409.332664 242.34896 
L 409.657448 233.979534 
L 409.982233 255.439776 
L 410.307017 244.728906 
L 410.631802 292.877915 
L 410.956586 248.827269 
L 411.281371 239.998897 
L 411.606155 220.828987 
L 411.93094 241.059632 
L 412.255724 292.690226 
L 412.580509 224.469501 
L 413.230077 286.108537 
L 413.554862 214.749772 
L 413.879646 302.279584 
L 414.204431 283.868887 
L 414.529215 213.567137 
L 414.854 219.824812 
L 415.178784 206.255137 
L 415.503569 229.337297 
L 415.828353 225.654903 
L 416.153138 211.004445 
L 416.802707 254.855525 
L 417.127491 223.383625 
L 417.452275 216.068843 
L 417.77706 257.166665 
L 418.101844 255.308476 
L 418.426629 226.505695 
L 418.751413 326.184654 
L 419.076198 250.01409 
L 419.400982 258.560618 
L 419.725767 256.511901 
L 420.375336 228.527694 
L 420.70012 239.309412 
L 421.024905 280.341989 
L 421.349689 260.180759 
L 421.674473 256.212024 
L 421.999258 299.700656 
L 422.324042 235.487327 
L 422.648827 216.340989 
L 422.973611 231.979259 
L 423.298396 217.077232 
L 423.62318 226.10194 
L 423.947965 244.801309 
L 424.272749 247.00565 
L 424.597534 215.968468 
L 424.922318 236.276995 
L 425.247102 239.860408 
L 425.571887 253.450782 
L 426.221456 266.212328 
L 426.54624 251.023646 
L 426.871025 230.200838 
L 427.195809 247.003701 
L 427.520594 276.215408 
L 427.845378 274.327216 
L 428.170163 210.619002 
L 428.494947 233.639609 
L 428.819732 244.249918 
L 429.144516 218.861451 
L 429.4693 227.50155 
L 429.794085 224.384443 
L 430.118869 243.392948 
L 430.443654 239.4449 
L 430.768438 228.851591 
L 431.093223 273.132455 
L 431.418007 257.030504 
L 431.742792 247.862309 
L 432.067576 251.866765 
L 432.392361 272.012015 
L 432.717145 259.715267 
L 433.041929 226.001278 
L 433.366714 256.703791 
L 433.691498 220.335842 
L 434.341067 279.626409 
L 434.665852 272.908564 
L 434.990636 272.34503 
L 435.315421 235.857667 
L 435.640205 222.459819 
L 435.96499 228.842164 
L 436.289774 254.476905 
L 436.614559 217.585487 
L 436.939343 236.777439 
L 437.264127 231.157652 
L 437.588912 216.603142 
L 437.913696 230.537033 
L 438.238481 223.803168 
L 438.563265 224.612388 
L 438.88805 213.562665 
L 439.212834 238.982737 
L 439.537619 221.785508 
L 439.862403 219.915941 
L 440.187188 228.378778 
L 440.511972 227.737927 
L 440.836757 212.633157 
L 441.161541 208.734251 
L 441.486325 215.53609 
L 441.81111 261.441554 
L 442.135894 258.36571 
L 442.460679 257.33393 
L 442.785463 275.375168 
L 443.110248 240.854911 
L 443.435032 225.106125 
L 443.759817 255.241678 
L 444.084601 228.221751 
L 444.409386 262.460625 
L 444.73417 257.87995 
L 445.058954 245.74296 
L 445.383739 321.613654 
L 446.033308 264.836758 
L 446.682877 278.530619 
L 447.332446 241.800403 
L 447.65723 240.493441 
L 447.982015 283.67598 
L 448.306799 235.680044 
L 448.631584 301.153785 
L 448.956368 227.599422 
L 449.281152 260.600038 
L 449.605937 257.492703 
L 449.930721 247.130456 
L 450.255506 267.987431 
L 450.58029 278.03872 
L 450.905075 234.117239 
L 451.229859 246.237028 
L 451.554644 265.155442 
L 451.879428 246.821589 
L 452.204213 240.357499 
L 452.528997 249.497088 
L 452.853782 246.496281 
L 453.178566 277.273822 
L 453.50335 354.548088 
L 453.828135 241.349672 
L 454.152919 267.812149 
L 454.477704 222.670752 
L 454.802488 263.132323 
L 455.127273 255.238574 
L 455.452057 278.125402 
L 455.776842 233.45099 
L 456.101626 242.995787 
L 456.426411 224.490903 
L 456.751195 237.628951 
L 457.075979 240.523195 
L 457.400764 269.535943 
L 457.725548 246.051637 
L 458.050333 246.603 
L 458.375117 224.854003 
L 458.699902 220.253476 
L 459.024686 306.538957 
L 459.349471 228.618147 
L 459.99904 268.353765 
L 460.323824 273.957259 
L 460.648609 294.782224 
L 460.973393 247.436227 
L 461.622962 212.309656 
L 462.272531 247.160695 
L 462.597315 257.186053 
L 462.9221 222.922741 
L 463.246884 285.770796 
L 463.571669 271.310123 
L 463.896453 294.074478 
L 464.221238 252.068581 
L 464.546022 242.530906 
L 464.870807 288.346103 
L 465.195591 286.680821 
L 465.520375 274.051473 
L 465.84516 232.804671 
L 466.169944 261.498285 
L 466.494729 220.678452 
L 466.819513 244.802843 
L 467.144298 219.879268 
L 467.469082 263.880286 
L 467.793867 263.617638 
L 468.118651 258.212369 
L 468.443436 241.121611 
L 468.76822 303.723512 
L 469.093004 208.422842 
L 469.417789 233.336922 
L 469.742573 240.597338 
L 470.067358 228.399365 
L 470.392142 259.101841 
L 470.716927 241.475354 
L 471.041711 246.797388 
L 471.366496 241.107169 
L 471.69128 222.588472 
L 472.016065 259.163347 
L 472.340849 263.708708 
L 472.665634 280.048534 
L 472.990418 279.502384 
L 473.315202 228.011245 
L 473.639987 269.455105 
L 473.964771 241.087746 
L 474.289556 247.482534 
L 474.61434 285.112002 
L 474.939125 266.004315 
L 475.263909 216.262682 
L 475.588694 255.859106 
L 475.913478 247.860969 
L 476.238263 295.217445 
L 476.563047 246.726012 
L 477.212616 231.764657 
L 477.5374 267.341405 
L 477.862185 285.406399 
L 478.186969 226.935768 
L 478.511754 264.845511 
L 478.836538 262.946048 
L 479.161323 263.360151 
L 479.486107 249.913564 
L 479.810892 242.571223 
L 480.135676 226.142145 
L 480.785245 259.816185 
L 481.110029 240.41574 
L 481.434814 290.783809 
L 481.759598 232.012482 
L 482.084383 298.915664 
L 482.409167 210.724599 
L 482.733952 226.75017 
L 483.058736 215.537547 
L 483.383521 208.580872 
L 483.708305 260.980746 
L 484.03309 230.922091 
L 484.357874 245.705202 
L 484.682659 234.228526 
L 485.007443 238.325831 
L 485.332227 260.035673 
L 485.657012 262.862138 
L 485.981796 278.091624 
L 486.306581 240.67663 
L 486.631365 218.329785 
L 486.95615 214.675709 
L 487.280934 216.448298 
L 487.605719 249.365063 
L 487.930503 232.805726 
L 488.255288 246.635038 
L 488.580072 221.236586 
L 488.904856 250.216934 
L 489.229641 244.103549 
L 489.554425 202.190995 
L 489.87921 210.982454 
L 490.203994 186.046628 
L 490.528779 217.579827 
L 490.853563 180.881934 
L 491.178348 231.936876 
L 491.503132 197.250594 
L 491.827917 207.900374 
L 492.152701 224.57318 
L 492.477486 212.768995 
L 492.80227 312.888624 
L 493.127054 219.340145 
L 493.451839 200.757552 
L 493.776623 255.869423 
L 494.101408 209.590535 
L 494.426192 228.758744 
L 494.750977 269.973411 
L 495.075761 230.904384 
L 495.400546 219.531657 
L 495.72533 203.541221 
L 496.050115 201.469329 
L 496.374899 231.630031 
L 496.699684 272.657699 
L 497.024468 217.8843 
L 497.349252 191.553535 
L 497.674037 204.176309 
L 497.998821 252.551626 
L 498.323606 224.952629 
L 498.64839 274.307708 
L 498.973175 256.578549 
L 499.297959 211.555412 
L 499.947528 237.561702 
L 500.272313 243.419111 
L 500.597097 261.158743 
L 501.246666 219.715395 
L 501.57145 243.55051 
L 501.896235 253.557239 
L 502.221019 227.373151 
L 502.545804 214.749873 
L 503.195373 245.444357 
L 503.520157 270.243183 
L 503.844942 282.578838 
L 504.169726 261.520184 
L 504.494511 221.456855 
L 504.819295 237.27839 
L 505.144079 220.037604 
L 505.468864 244.979755 
L 505.793648 238.137411 
L 506.118433 254.541835 
L 506.443217 238.822824 
L 506.768002 231.96946 
L 507.092786 229.850098 
L 507.417571 258.130748 
L 507.742355 218.840034 
L 508.06714 259.075135 
L 508.391924 221.186105 
L 508.716709 208.05075 
L 509.041493 201.076415 
L 509.366277 188.0909 
L 509.691062 193.386512 
L 510.015846 176.335476 
L 510.340631 183.813138 
L 510.665415 173.176446 
L 510.9902 191.059119 
L 511.314984 179.530813 
L 511.639769 191.814777 
L 511.964553 193.129593 
L 512.289338 184.185176 
L 512.614122 201.831307 
L 512.938906 199.704886 
L 513.263691 212.840852 
L 513.588475 215.826032 
L 513.91326 264.885246 
L 514.238044 222.921153 
L 514.562829 200.098284 
L 515.537182 185.753453 
L 515.861967 198.860259 
L 516.186751 194.226759 
L 516.511536 192.681897 
L 516.83632 207.019159 
L 517.161104 190.860103 
L 517.485889 203.850373 
L 517.810673 210.51654 
L 518.135458 212.538803 
L 518.785027 190.640855 
L 519.109811 202.18504 
L 519.434596 313.470646 
L 519.75938 206.601976 
L 520.084165 208.341723 
L 520.408949 226.71988 
L 520.733733 219.659971 
L 521.058518 228.949894 
L 521.383302 195.053108 
L 521.708087 302.856318 
L 522.032871 237.755302 
L 522.357656 218.424882 
L 522.68244 170.253943 
L 523.007225 214.802844 
L 523.332009 215.78822 
L 523.656794 230.304719 
L 523.981578 197.611625 
L 524.306363 249.584466 
L 524.631147 191.612803 
L 524.955931 192.438567 
L 525.280716 227.409558 
L 525.6055 231.116755 
L 525.930285 186.413047 
L 526.255069 219.262977 
L 526.579854 235.533324 
L 527.229423 191.117736 
L 527.554207 218.086866 
L 527.878992 217.847789 
L 528.203776 223.085623 
L 528.528561 204.899212 
L 528.853345 228.849474 
L 529.502914 191.335224 
L 529.827698 241.469335 
L 530.152483 247.138359 
L 530.802052 217.901528 
L 531.126836 225.788829 
L 531.451621 207.234226 
L 531.776405 234.008344 
L 532.10119 236.291797 
L 532.425974 225.969039 
L 532.750758 220.902651 
L 533.075543 269.053292 
L 533.400327 245.950422 
L 534.049896 220.812055 
L 534.374681 231.708295 
L 534.699465 226.457271 
L 535.349034 208.338821 
L 535.673819 302.045737 
L 535.998603 250.494726 
L 536.323388 228.902822 
L 536.648172 229.2972 
L 536.972956 242.99279 
L 537.297741 263.802433 
L 537.622525 238.890322 
L 537.94731 280.419707 
L 538.596879 262.662091 
L 538.921663 234.404242 
L 539.246448 233.2823 
L 539.571232 233.560589 
L 539.896017 227.641487 
L 540.220801 266.560345 
L 540.545586 271.132851 
L 541.519939 222.535359 
L 541.844723 279.845151 
L 542.169508 222.005399 
L 542.494292 258.133871 
L 542.819077 228.59287 
L 543.143861 230.834976 
L 543.468646 269.999176 
L 544.118215 234.065631 
L 544.442999 231.105416 
L 544.767783 290.928225 
L 545.092568 276.281202 
L 545.417352 230.351942 
L 545.742137 225.95589 
L 546.391706 235.09381 
L 546.71649 228.208496 
L 547.041275 217.345849 
L 547.366059 235.25089 
L 547.690844 219.130184 
L 548.015628 264.224028 
L 548.665197 251.608575 
L 548.989981 255.318076 
L 549.314766 239.396039 
L 549.63955 260.654883 
L 549.964335 226.92039 
L 550.289119 227.967369 
L 550.613904 217.547037 
L 550.938688 247.812466 
L 551.263473 237.121479 
L 551.913042 270.948872 
L 552.237826 234.25487 
L 552.56261 240.058629 
L 552.887395 248.580861 
L 553.212179 213.885583 
L 553.536964 262.254583 
L 553.861748 253.242487 
L 554.186533 254.345117 
L 554.511317 236.082417 
L 554.836102 237.172699 
L 555.160886 260.158869 
L 555.485671 230.871977 
L 555.810455 252.975105 
L 556.13524 227.776311 
L 556.460024 222.50897 
L 556.784808 210.924948 
L 557.109593 220.455553 
L 557.434377 236.623474 
L 557.759162 199.365456 
L 558.733515 295.253717 
L 559.0583 224.849214 
L 559.383084 234.574093 
L 559.707869 227.070435 
L 560.032653 247.480988 
L 560.357438 214.07518 
L 560.682222 239.016746 
L 561.007006 238.11281 
L 561.331791 272.527312 
L 561.656575 233.992916 
L 561.98136 246.895462 
L 562.306144 230.62487 
L 562.630929 301.233469 
L 562.955713 229.354534 
L 563.280498 277.713982 
L 563.930067 217.467269 
L 564.254851 246.056034 
L 564.579635 236.396162 
L 564.90442 239.095388 
L 565.229204 226.386793 
L 565.553989 227.460395 
L 565.878773 240.672856 
L 566.203558 233.445424 
L 566.528342 250.873119 
L 566.853127 220.774967 
L 567.177911 240.880139 
L 567.502696 242.060529 
L 567.82748 210.816448 
L 568.152265 327.951974 
L 568.477049 256.745172 
L 568.801833 217.196426 
L 569.126618 252.445145 
L 569.451402 209.323894 
L 570.425756 172.249914 
L 571.075325 89.6148 
L 572.049678 186.199875 
L 572.374463 188.943551 
L 572.699247 202.978851 
L 573.348816 212.491459 
L 573.6736 241.223394 
L 573.998385 211.477663 
L 574.323169 242.975886 
L 574.647954 245.755979 
L 574.972738 275.283889 
L 575.297523 236.242758 
L 575.622307 241.218139 
L 575.947092 238.730337 
L 576.271876 226.69305 
L 576.921445 260.220268 
L 577.246229 226.530649 
L 577.571014 272.810802 
L 577.895798 272.242119 
L 578.220583 236.143564 
L 578.545367 252.12938 
L 578.870152 221.020127 
L 579.519721 279.275712 
L 579.844505 281.876775 
L 580.16929 241.701802 
L 580.494074 231.101247 
L 580.818858 248.002421 
L 581.143643 244.299892 
L 581.468427 256.716803 
L 581.793212 262.597055 
L 582.117996 256.924554 
L 582.442781 248.576883 
L 582.767565 246.54276 
L 583.09235 300.734689 
L 583.417134 321.939874 
L 584.066703 234.784202 
L 584.391488 273.679242 
L 584.716272 241.7514 
L 585.041056 261.051317 
L 585.365841 229.244395 
L 585.690625 260.344251 
L 586.01541 247.898921 
L 586.340194 255.101603 
L 586.664979 237.064414 
L 586.989763 268.727372 
L 587.314548 250.830983 
L 587.639332 251.78944 
L 587.964117 270.84761 
L 588.288901 247.316932 
L 588.613685 264.662185 
L 588.93847 227.41182 
L 589.263254 264.568157 
L 589.588039 234.952268 
L 589.912823 284.317081 
L 590.237608 244.878304 
L 590.562392 223.587076 
L 591.211961 247.405057 
L 591.536746 225.67202 
L 591.86153 263.499846 
L 592.186315 248.425893 
L 592.511099 243.315882 
L 592.835883 220.958142 
L 593.160668 243.963316 
L 593.485452 240.106638 
L 593.810237 250.7645 
L 594.135021 257.371112 
L 594.459806 302.157378 
L 594.78459 267.684852 
L 595.109375 261.197917 
L 595.434159 260.668464 
L 595.758944 231.502433 
L 596.083728 225.98501 
L 596.408512 238.859335 
L 596.733297 228.269792 
L 597.058081 225.494677 
L 597.382866 260.958859 
L 597.70765 224.476083 
L 598.032435 265.997764 
L 598.357219 218.246328 
L 598.682004 257.390835 
L 599.006788 216.725802 
L 599.331573 243.649223 
L 599.656357 289.971347 
L 599.981142 252.619705 
L 600.305926 248.732501 
L 600.63071 280.035045 
L 600.955495 214.674231 
L 601.280279 248.849262 
L 601.605064 187.785351 
L 601.929848 210.31327 
L 602.254633 198.620338 
L 602.579417 260.548943 
L 602.904202 207.693112 
L 603.228986 202.977137 
L 603.553771 208.918394 
L 603.878555 262.179623 
L 604.20334 282.633876 
L 604.528124 202.650298 
L 604.852908 216.759327 
L 605.177693 194.915211 
L 605.502477 251.513308 
L 605.827262 237.897643 
L 606.152046 209.618596 
L 606.476831 213.895057 
L 606.801615 240.100445 
L 607.1264 219.572429 
L 608.100753 256.448284 
L 608.425537 240.03497 
L 608.750322 205.716895 
L 609.075106 215.125191 
L 609.399891 210.478327 
L 609.724675 223.179264 
L 610.04946 225.230557 
L 610.374244 219.868942 
L 610.699029 192.710021 
L 611.023813 211.900342 
L 611.348598 214.255079 
L 611.673382 208.970263 
L 611.998167 207.115325 
L 612.322951 264.509996 
L 612.647735 218.953526 
L 612.97252 223.896879 
L 613.297304 206.093638 
L 613.622089 231.382415 
L 613.946873 234.493553 
L 614.271658 199.960802 
L 614.596442 224.911254 
L 614.921227 272.207206 
L 615.246011 279.116399 
L 615.570796 275.186334 
L 615.89558 245.310373 
L 616.220365 231.108834 
L 616.545149 241.053002 
L 616.869933 228.798052 
L 617.194718 272.002876 
L 617.519502 244.303551 
L 617.844287 199.859211 
L 618.169071 225.411946 
L 618.493856 195.643596 
L 618.81864 209.482062 
L 619.143425 207.294439 
L 619.468209 212.131854 
L 619.792994 202.207327 
L 620.117778 205.506796 
L 620.442562 239.95328 
L 620.767347 214.072323 
L 621.092131 202.515455 
L 621.416916 204.451861 
L 621.7417 199.519114 
L 622.066485 208.373443 
L 622.391269 228.736894 
L 622.716054 240.776944 
L 623.040838 208.268585 
L 623.365623 254.375656 
L 623.690407 237.278794 
L 624.015192 247.769307 
L 624.339976 237.795651 
L 624.66476 237.121272 
L 624.989545 264.659125 
L 625.314329 251.279641 
L 625.639114 222.583336 
L 625.963898 269.787796 
L 626.288683 244.226728 
L 626.613467 253.387104 
L 626.938252 223.48704 
L 627.263036 241.352732 
L 627.587821 226.544336 
L 627.912605 262.879841 
L 628.23739 214.824947 
L 628.562174 248.259107 
L 628.886958 249.619886 
L 629.211743 322.321799 
L 629.536527 222.340357 
L 629.861312 231.307568 
L 630.510881 225.752479 
L 630.835665 276.777242 
L 631.16045 232.247562 
L 631.485234 291.442594 
L 631.810019 268.236302 
L 632.134803 233.909467 
L 632.459587 285.762795 
L 632.784372 206.2701 
L 633.109156 241.314393 
L 633.433941 215.377435 
L 633.758725 229.025602 
L 634.08351 211.314207 
L 634.408294 234.268924 
L 634.733079 220.896196 
L 635.382648 240.699393 
L 635.707432 278.331535 
L 636.032217 223.922668 
L 636.357001 291.129228 
L 636.681785 247.31291 
L 637.331354 278.330739 
L 637.656139 289.275916 
L 637.980923 242.806092 
L 638.305708 260.391742 
L 638.630492 229.250742 
L 638.955277 225.05024 
L 639.280061 232.36105 
L 639.604846 218.487622 
L 639.92963 233.416499 
L 640.254414 228.252781 
L 640.579199 213.541366 
L 640.903983 213.170221 
L 641.228768 222.888944 
L 641.553552 243.653561 
L 641.878337 211.459422 
L 642.203121 225.573326 
L 642.527906 218.71422 
L 642.85269 231.408943 
L 643.177475 208.307294 
L 643.502259 213.476488 
L 643.827044 237.18596 
L 644.151828 245.834657 
L 644.476612 216.323541 
L 644.801397 248.980418 
L 645.126181 238.371386 
L 645.450966 247.407107 
L 645.77575 213.205943 
L 646.100535 206.750228 
L 646.425319 210.329768 
L 646.750104 191.91685 
L 647.074888 199.157417 
L 647.399673 202.52773 
L 647.724457 196.523087 
L 648.049242 208.790695 
L 648.69881 192.459436 
L 649.023595 220.320454 
L 649.348379 211.865595 
L 649.673164 217.309265 
L 650.322733 239.51263 
L 650.647517 231.476699 
L 650.972302 226.435835 
L 651.297086 230.391309 
L 651.621871 214.930451 
L 651.946655 250.667022 
L 652.596224 223.197209 
L 653.245793 194.603903 
L 653.570577 210.734825 
L 653.895362 203.481897 
L 654.544931 224.196374 
L 654.869715 215.378789 
L 655.1945 212.3889 
L 655.519284 199.729526 
L 655.844069 200.539861 
L 656.168853 218.699846 
L 656.493637 204.357253 
L 656.818422 229.004885 
L 657.143206 238.515119 
L 657.467991 204.495221 
L 657.792775 241.399514 
L 658.11756 219.761859 
L 658.442344 241.435564 
L 658.767129 241.185517 
L 659.091913 235.30691 
L 659.416698 222.547333 
L 659.741482 203.376774 
L 660.066267 199.868484 
L 660.391051 215.266701 
L 660.715835 211.363499 
L 661.04062 197.806655 
L 661.365404 203.888424 
L 661.690189 256.66136 
L 662.014973 246.089732 
L 662.339758 225.297245 
L 662.664542 211.783666 
L 662.989327 229.074707 
L 663.314111 260.541419 
L 663.638896 262.24359 
L 663.96368 221.781448 
L 664.288464 216.888296 
L 664.613249 235.167129 
L 664.938033 223.395483 
L 665.587602 260.529093 
L 665.912387 259.446174 
L 666.237171 213.5672 
L 666.561956 223.424301 
L 666.88674 214.159984 
L 667.211525 220.175626 
L 667.536309 213.608549 
L 667.861094 225.16115 
L 668.185878 212.747872 
L 668.510662 224.877415 
L 668.835447 192.169324 
L 669.160231 220.944216 
L 669.485016 228.801105 
L 669.8098 182.427926 
L 670.459369 232.745349 
L 670.784154 224.191808 
L 671.433723 246.741294 
L 671.758507 207.187353 
L 672.083291 257.766448 
L 672.408076 288.957076 
L 672.73286 261.92978 
L 673.382429 225.742577 
L 673.707214 216.028442 
L 674.031998 221.365425 
L 674.356783 211.878798 
L 675.006352 236.919134 
L 675.331136 262.088009 
L 675.655921 233.131155 
L 675.980705 240.169947 
L 676.305489 251.416146 
L 676.630274 223.447109 
L 676.955058 232.0211 
L 677.279843 260.630686 
L 677.604627 220.56649 
L 677.929412 262.557454 
L 678.254196 229.282866 
L 678.578981 232.298976 
L 678.903765 248.202528 
L 679.553334 208.199554 
L 679.878119 256.214593 
L 680.202903 204.747492 
L 680.527687 233.870744 
L 680.852472 216.894859 
L 681.177256 220.881483 
L 681.502041 253.295393 
L 681.826825 239.51724 
L 682.15161 257.38415 
L 682.476394 309.534392 
L 682.801179 217.223342 
L 683.125963 210.870819 
L 683.450748 200.469505 
L 683.775532 211.114993 
L 684.100316 259.369825 
L 684.425101 205.094787 
L 684.749885 192.075885 
L 685.07467 215.600007 
L 685.399454 196.26507 
L 685.724239 198.647169 
L 686.049023 210.655343 
L 686.373808 191.543967 
L 686.698592 223.830242 
L 687.023377 244.32455 
L 687.348161 236.756344 
L 687.672946 274.71503 
L 688.322514 228.844381 
L 688.647299 229.928738 
L 688.972083 286.063924 
L 689.296868 260.250202 
L 689.621652 213.385227 
L 689.946437 246.705382 
L 690.271221 265.641575 
L 690.596006 251.693763 
L 690.92079 203.619992 
L 691.245575 269.804789 
L 691.570359 224.156231 
L 691.895144 212.77406 
L 692.219928 321.471432 
L 692.544712 203.629718 
L 692.869497 278.216755 
L 693.194281 270.056568 
L 693.84385 217.910557 
L 694.168635 268.347498 
L 694.818204 208.909434 
L 695.142988 212.854068 
L 695.467773 242.371682 
L 695.792557 238.329278 
L 696.117341 221.882193 
L 696.442126 258.059928 
L 696.76691 223.468268 
L 697.091695 260.787772 
L 697.416479 221.27535 
L 697.741264 228.329776 
L 698.066048 211.992417 
L 698.390833 216.745706 
L 698.715617 230.042282 
L 699.040402 235.199068 
L 699.365186 235.495111 
L 699.689971 250.229756 
L 700.014755 217.73584 
L 700.339539 216.243103 
L 700.664324 231.126947 
L 700.989108 216.335776 
L 701.313893 259.215408 
L 701.638677 250.278285 
L 701.963462 219.503508 
L 702.288246 214.329562 
L 702.613031 276.570623 
L 702.937815 266.395205 
L 703.2626 233.815332 
L 703.587384 234.855541 
L 703.912169 221.802814 
L 704.561737 248.624463 
L 704.886522 218.357576 
L 705.211306 233.553196 
L 705.536091 237.938729 
L 705.860875 227.794361 
L 706.18566 224.609022 
L 706.510444 286.742661 
L 706.835229 228.549548 
L 707.160013 207.249409 
L 707.484798 229.187541 
L 707.809582 230.677808 
L 708.134366 215.635073 
L 708.459151 212.313117 
L 708.783935 197.067334 
L 709.433504 226.170614 
L 709.758289 215.011121 
L 710.083073 258.609001 
L 710.407858 241.547084 
L 710.732642 249.68987 
L 711.057427 200.118571 
L 711.382211 260.144552 
L 711.706996 217.820938 
L 712.03178 219.396379 
L 712.356564 200.998453 
L 712.681349 209.150545 
L 713.006133 313.511048 
L 713.330918 210.584392 
L 713.655702 247.810192 
L 713.980487 223.528321 
L 714.305271 251.036318 
L 714.630056 220.860745 
L 714.95484 263.399735 
L 715.279625 219.193812 
L 715.604409 210.281701 
L 715.929193 220.086991 
L 716.253978 203.567154 
L 716.578762 223.27063 
L 716.903547 209.662955 
L 717.228331 208.713567 
L 717.553116 238.282012 
L 717.8779 198.453622 
L 718.202685 235.359711 
L 718.527469 206.016155 
L 718.852254 211.707932 
L 719.177038 295.454337 
L 719.501823 282.143398 
L 719.826607 217.008775 
L 720.151391 260.016313 
L 720.476176 202.312388 
L 720.80096 198.673602 
L 721.125745 233.839659 
L 721.450529 245.108343 
L 721.775314 197.527767 
L 722.100098 210.194545 
L 722.424883 212.845347 
L 722.749667 200.746698 
L 723.074452 217.680666 
L 723.399236 209.131434 
L 723.724021 252.343198 
L 724.048805 220.379644 
L 724.373589 234.664541 
L 724.698374 262.87944 
L 725.023158 267.675305 
L 725.347943 210.092889 
L 725.672727 217.424319 
L 725.997512 218.958143 
L 726.647081 269.094886 
L 726.971865 265.687237 
L 727.29665 252.64425 
L 727.621434 224.107879 
L 727.946218 242.25353 
L 728.271003 221.81957 
L 728.595787 220.770343 
L 728.920572 220.600596 
L 729.245356 223.474505 
L 729.570141 198.100454 
L 729.894925 205.753511 
L 730.21971 227.81838 
L 730.544494 262.474697 
L 730.869279 224.18009 
L 731.194063 272.951065 
L 731.518848 235.86515 
L 731.843632 230.586396 
L 732.168416 212.309879 
L 732.493201 250.131255 
L 732.817985 236.350855 
L 733.14277 229.786562 
L 733.792339 224.283258 
L 734.117123 245.765171 
L 734.441908 254.010434 
L 734.766692 245.855445 
L 735.091477 226.271558 
L 735.416261 219.378799 
L 735.741046 256.884512 
L 736.06583 217.232645 
L 736.390614 242.6643 
L 736.715399 253.184054 
L 737.040183 233.558807 
L 737.364968 236.775751 
L 737.689752 207.834447 
L 738.014537 219.315591 
L 738.339321 285.07475 
L 738.664106 265.077045 
L 739.313675 196.861414 
L 739.638459 257.459274 
L 739.963243 266.888872 
L 740.288028 225.669734 
L 740.612812 209.646077 
L 740.937597 208.243286 
L 741.262381 212.244644 
L 741.587166 262.591778 
L 741.91195 231.062393 
L 742.236735 227.698854 
L 742.561519 291.464867 
L 742.886304 308.100821 
L 743.211088 247.735853 
L 743.535873 222.553731 
L 743.860657 229.211695 
L 744.185441 218.86704 
L 744.510226 252.624255 
L 744.83501 239.995704 
L 745.159795 304.513465 
L 745.484579 230.100954 
L 745.809364 231.059395 
L 746.134148 219.224902 
L 746.458933 243.751086 
L 746.783717 204.961263 
L 747.108502 253.61459 
L 747.758071 224.776467 
L 748.082855 228.408261 
L 748.407639 245.905735 
L 748.732424 227.577645 
L 749.057208 226.386937 
L 749.381993 237.948597 
L 749.706777 203.436608 
L 750.031562 272.111769 
L 750.356346 247.216021 
L 750.681131 288.997675 
L 751.005915 223.830951 
L 751.3307 218.013197 
L 751.655484 232.234806 
L 752.305053 286.401932 
L 752.629837 252.06994 
L 752.954622 262.804223 
L 753.279406 225.560885 
L 753.928975 226.326341 
L 754.25376 279.419535 
L 754.578544 245.798477 
L 754.903329 271.348231 
L 755.228113 231.47903 
L 755.552898 287.645204 
L 755.877682 263.30901 
L 756.202466 275.076279 
L 756.527251 212.803192 
L 756.852035 283.746273 
L 757.17682 257.191177 
L 757.501604 248.135915 
L 757.826389 231.0694 
L 758.151173 238.449494 
L 758.475958 267.162688 
L 758.800742 316.946079 
L 759.125527 235.302426 
L 759.450311 228.280441 
L 759.775095 299.815494 
L 760.09988 245.022007 
L 760.424664 301.131862 
L 760.749449 282.17549 
L 761.074233 248.667947 
L 761.399018 266.355083 
L 761.723802 251.765886 
L 762.048587 256.998057 
L 762.373371 228.461475 
L 762.698156 232.647687 
L 763.02294 222.668648 
L 763.347725 244.133133 
L 763.672509 232.346532 
L 763.997293 234.869506 
L 764.322078 251.664896 
L 764.646862 219.582033 
L 764.971647 219.658855 
L 765.296431 243.300064 
L 765.621216 229.268475 
L 765.946 225.244398 
L 766.270785 210.504381 
L 766.595569 265.515779 
L 766.920354 224.669622 
L 767.245138 212.069338 
L 767.569923 217.500783 
L 767.894707 247.895783 
L 768.219491 322.83499 
L 768.86906 273.337796 
L 769.193845 226.574681 
L 769.518629 224.235324 
L 769.843414 286.930022 
L 770.168198 227.086018 
L 770.492983 247.982351 
L 770.817767 218.745895 
L 771.142552 263.870617 
L 771.467336 261.232847 
L 771.79212 246.27508 
L 772.116905 252.965548 
L 772.441689 239.401963 
L 772.766474 243.960226 
L 773.091258 266.205813 
L 773.416043 278.017315 
L 773.740827 261.242963 
L 774.065612 252.77002 
L 774.390396 238.003843 
L 774.715181 209.767341 
L 775.039965 260.311268 
L 775.36475 222.740117 
L 775.689534 234.125359 
L 776.014318 221.991489 
L 776.339103 232.601057 
L 776.663887 234.799086 
L 777.313456 287.309088 
L 777.638241 251.079976 
L 777.963025 246.565618 
L 778.28781 232.825711 
L 778.612594 210.795671 
L 778.937379 238.869026 
L 779.586948 248.947646 
L 779.911732 252.611099 
L 780.236516 221.085207 
L 780.561301 222.433239 
L 780.886085 234.826894 
L 781.21087 223.22729 
L 781.535654 219.178109 
L 781.860439 210.087899 
L 782.185223 227.710477 
L 782.510008 282.936644 
L 782.834792 218.901356 
L 783.159577 255.013549 
L 783.484361 271.74744 
L 784.13393 212.937052 
L 784.783499 248.410779 
L 785.108283 264.810242 
L 785.433068 188.565365 
L 785.757852 239.749265 
L 786.082637 235.087906 
L 786.407421 206.169319 
L 786.732206 216.213301 
L 787.05699 261.315991 
L 787.381775 229.856145 
L 787.706559 234.490093 
L 788.031343 271.652697 
L 788.680912 202.982784 
L 789.005697 289.118179 
L 789.330481 277.530975 
L 789.655266 223.126439 
L 789.98005 201.805663 
L 790.954404 250.273838 
L 791.279188 268.670267 
L 791.603972 243.870345 
L 791.928757 262.188436 
L 792.253541 243.451251 
L 792.578326 239.823503 
L 792.90311 255.138684 
L 793.227895 214.076685 
L 793.552679 218.270587 
L 793.877464 227.895128 
L 794.202248 223.992425 
L 794.527033 229.997228 
L 794.851817 212.197174 
L 795.176602 255.467266 
L 795.501386 253.923461 
L 795.82617 236.565004 
L 796.150955 227.89563 
L 796.475739 234.834696 
L 796.800524 215.674977 
L 797.125308 225.162283 
L 797.450093 252.366791 
L 798.099662 200.488253 
L 798.424446 235.545905 
L 798.749231 201.22861 
L 799.074015 249.968346 
L 799.3988 231.440969 
L 799.723584 244.756853 
L 800.048368 247.577327 
L 800.373153 248.920317 
L 800.697937 223.193006 
L 801.022722 266.935561 
L 801.347506 272.837486 
L 801.672291 260.949614 
L 801.997075 239.405397 
L 802.32186 231.000909 
L 802.646644 272.458363 
L 802.971429 224.14884 
L 803.296213 231.880348 
L 803.620997 223.55932 
L 803.945782 315.750855 
L 804.270566 243.739753 
L 804.595351 253.812338 
L 804.920135 252.167243 
L 805.24492 316.658567 
L 805.569704 248.614903 
L 806.219273 274.843679 
L 806.544058 245.267687 
L 806.868842 242.191542 
L 807.193627 253.259846 
L 807.518411 225.540008 
L 807.843195 240.004784 
L 808.492764 292.973987 
L 808.817549 294.601066 
L 809.142333 223.293945 
L 809.791902 328.824678 
L 810.116687 249.792816 
L 810.441471 261.249037 
L 810.766256 262.484387 
L 811.09104 236.406237 
L 811.415825 249.499367 
L 811.740609 228.013434 
L 812.065393 224.593274 
L 812.390178 240.925987 
L 812.714962 274.135256 
L 813.039747 205.489808 
L 813.364531 286.084254 
L 813.689316 210.215681 
L 814.0141 280.184607 
L 814.338885 223.266583 
L 814.663669 261.553757 
L 814.988454 215.055719 
L 815.313238 245.383161 
L 815.638022 224.625923 
L 815.962807 258.843646 
L 816.287591 224.577121 
L 816.612376 237.625654 
L 816.93716 227.157148 
L 817.261945 210.780736 
L 817.586729 209.324314 
L 817.911514 225.269262 
L 818.236298 232.405606 
L 818.561083 232.251688 
L 818.885867 263.020855 
L 819.210652 223.481025 
L 819.535436 218.824823 
L 819.86022 225.539364 
L 820.185005 263.076274 
L 820.834574 227.842997 
L 821.159358 232.688885 
L 821.484143 219.209348 
L 821.808927 231.684455 
L 822.458496 268.881926 
L 822.783281 236.262973 
L 823.108065 261.422091 
L 823.43285 355.791313 
L 823.757634 282.530618 
L 824.082418 283.138176 
L 824.407203 216.591358 
L 824.731987 249.123359 
L 825.056772 240.672742 
L 825.381556 206.647888 
L 825.706341 253.190481 
L 826.031125 276.023407 
L 826.35591 308.389639 
L 827.005479 216.20583 
L 827.330263 218.071065 
L 827.655047 256.200908 
L 827.979832 244.390688 
L 828.629401 199.521395 
L 829.27897 244.558176 
L 829.603754 247.70939 
L 829.928539 212.68821 
L 830.253323 235.586511 
L 830.578108 320.153064 
L 830.902892 233.101775 
L 831.227677 238.512599 
L 831.552461 226.85992 
L 831.877245 277.488216 
L 832.20203 224.693291 
L 832.526814 240.208457 
L 832.851599 228.474404 
L 833.176383 230.423833 
L 833.501168 235.951853 
L 833.825952 235.783997 
L 834.475521 258.102561 
L 834.800306 249.648272 
L 835.12509 214.135322 
L 835.449874 230.992759 
L 835.774659 275.884002 
L 836.099443 232.827032 
L 836.424228 220.84124 
L 836.749012 326.783082 
L 837.073797 222.32918 
L 837.398581 235.561595 
L 837.723366 220.952049 
L 838.04815 224.58225 
L 838.372935 250.89823 
L 838.697719 211.913031 
L 839.022504 224.416065 
L 839.347288 257.515272 
L 839.672072 261.605354 
L 839.996857 237.669375 
L 840.321641 205.488162 
L 840.97121 259.107894 
L 841.295995 200.689774 
L 841.620779 207.944833 
L 841.945564 223.011306 
L 842.270348 230.024006 
L 842.595133 230.181425 
L 842.919917 206.171137 
L 843.244702 282.207336 
L 843.569486 273.742026 
L 843.89427 272.146622 
L 844.219055 286.583961 
L 844.543839 272.117498 
L 844.868624 297.770251 
L 845.193408 237.849006 
L 845.518193 249.317359 
L 845.842977 247.955119 
L 846.167762 328.914854 
L 846.492546 257.416605 
L 846.817331 271.697741 
L 847.142115 224.729741 
L 847.466899 253.855077 
L 847.791684 235.328056 
L 848.116468 276.467436 
L 848.441253 291.8916 
L 848.766037 261.988503 
L 849.090822 242.954777 
L 849.415606 268.337826 
L 849.740391 263.040634 
L 850.38996 234.485524 
L 850.714744 283.621584 
L 851.039529 273.021317 
L 851.364313 258.709167 
L 851.689097 230.387764 
L 852.013882 230.586182 
L 852.338666 253.924496 
L 852.663451 238.740166 
L 852.988235 325.88999 
L 853.962589 234.399986 
L 854.287373 235.665618 
L 854.612158 252.135469 
L 854.936942 242.852293 
L 855.261727 256.239227 
L 855.586511 211.021151 
L 855.911295 237.460586 
L 856.23608 254.552473 
L 856.560864 241.875715 
L 856.885649 267.360275 
L 857.210433 266.417379 
L 857.535218 260.42024 
L 857.860002 237.733751 
L 858.184787 243.458755 
L 858.509571 322.441371 
L 858.834356 332.630658 
L 859.15914 237.687881 
L 859.483924 310.77574 
L 859.808709 328.668881 
L 860.133493 267.428691 
L 860.458278 279.427872 
L 860.783062 229.102826 
L 861.107847 266.745992 
L 861.432631 251.62115 
L 861.757416 252.991063 
L 862.0822 253.136227 
L 862.406985 238.361714 
L 862.731769 230.547576 
L 863.056554 249.111545 
L 863.381338 248.548932 
L 863.706122 259.927557 
L 864.030907 275.739427 
L 864.680476 269.210698 
L 865.00526 275.946743 
L 865.330045 288.139482 
L 865.654829 280.455194 
L 865.979614 288.660947 
L 866.304398 278.187067 
L 866.629183 254.44854 
L 866.953967 331.208272 
L 867.278752 257.793465 
L 867.603536 245.994312 
L 867.92832 246.172115 
L 868.253105 271.327186 
L 868.577889 253.761181 
L 868.902674 283.867842 
L 869.227458 255.244029 
L 869.552243 269.121474 
L 869.877027 262.494871 
L 870.201812 285.334961 
L 870.526596 277.300025 
L 870.851381 277.076776 
L 871.176165 262.620709 
L 871.500949 330.556005 
L 871.825734 279.423817 
L 872.150518 266.325472 
L 872.475303 275.140749 
L 872.800087 295.655959 
L 873.124872 258.216168 
L 873.449656 272.830017 
L 873.774441 299.559484 
L 874.099225 292.970563 
L 874.42401 260.8182 
L 874.748794 259.837906 
L 875.073579 274.380222 
L 875.398363 273.054127 
L 875.723147 314.487517 
L 876.047932 284.962757 
L 876.372716 347.800993 
L 876.697501 264.193665 
L 877.022285 291.280845 
L 877.671854 302.076191 
L 877.996639 289.21635 
L 878.321423 287.150116 
L 878.646208 300.427446 
L 878.970992 300.820745 
L 879.295776 253.322891 
L 879.620561 298.421215 
L 879.945345 252.926308 
L 880.27013 282.403601 
L 880.594914 289.292931 
L 880.919699 291.524418 
L 881.244483 301.5778 
L 881.569268 296.235131 
L 881.894052 277.113031 
L 882.218837 277.700504 
L 882.543621 314.560742 
L 883.19319 283.301318 
L 883.517974 273.067477 
L 883.842759 257.540413 
L 884.167543 306.815626 
L 884.492328 280.728068 
L 884.817112 273.140131 
L 885.141897 328.849666 
L 885.466681 255.338956 
L 885.791466 315.171178 
L 886.11625 275.847638 
L 886.441035 292.664825 
L 886.765819 288.200885 
L 887.090604 278.048256 
L 887.415388 292.996821 
L 887.740172 270.711965 
L 888.064957 313.583564 
L 888.389741 272.744479 
L 888.714526 302.227139 
L 889.03931 272.730781 
L 889.364095 333.215802 
L 889.688879 267.720353 
L 890.013664 289.811115 
L 890.338448 284.32112 
L 890.663233 272.946937 
L 890.988017 275.036747 
L 891.312801 290.798244 
L 891.637586 269.878223 
L 891.96237 261.486184 
L 892.611939 283.708066 
L 892.936724 278.859853 
L 893.261508 278.303707 
L 893.586293 290.034525 
L 893.911077 331.064559 
L 894.235862 455.389553 
L 894.560646 283.691081 
L 894.885431 260.055422 
L 895.210215 307.398155 
L 895.534999 275.284479 
L 895.859784 303.928159 
L 896.184568 253.293769 
L 896.509353 297.878241 
L 896.834137 286.505272 
L 897.158922 320.485205 
L 897.483706 296.718491 
L 897.808491 261.289902 
L 898.133275 321.140101 
L 898.782844 265.186278 
L 899.107629 329.418664 
L 899.432413 293.071331 
L 899.757197 297.778758 
L 900.081982 274.569714 
L 900.406766 297.913774 
L 900.731551 272.538283 
L 901.056335 289.405658 
L 901.38112 265.44582 
L 901.705904 291.421384 
L 902.030689 302.621721 
L 902.355473 260.239 
L 902.680258 279.014927 
L 903.005042 262.214529 
L 903.329826 278.324884 
L 903.654611 280.119251 
L 903.979395 291.594158 
L 904.30418 264.26556 
L 904.953749 384.626635 
L 905.278533 301.266063 
L 905.603318 277.043939 
L 905.928102 320.941775 
L 906.252887 277.104961 
L 906.577671 317.135903 
L 906.902456 261.334711 
L 907.22724 319.531076 
L 907.552024 311.043657 
L 907.876809 285.892111 
L 908.201593 273.679064 
L 908.526378 306.429019 
L 908.851162 326.833342 
L 909.175947 289.424372 
L 909.500731 307.146203 
L 909.825516 300.143741 
L 910.1503 271.839895 
L 910.475085 293.04786 
L 910.799869 269.738887 
L 911.124653 328.75972 
L 911.449438 290.39289 
L 911.774222 267.690309 
L 912.099007 306.30464 
L 912.423791 304.526341 
L 912.748576 291.09728 
L 913.07336 320.335578 
L 913.398145 290.775117 
L 913.722929 288.490899 
L 914.047714 295.828815 
L 914.697283 324.935533 
L 915.022067 293.877158 
L 915.346851 303.450024 
L 915.671636 298.496886 
L 915.99642 307.701784 
L 916.321205 300.431958 
L 916.645989 311.859699 
L 916.970774 291.027317 
L 917.295558 342.154379 
L 917.620343 313.339255 
L 917.945127 315.836648 
L 918.269912 316.175177 
L 918.594696 298.661527 
L 918.919481 320.918631 
L 919.244265 408.555361 
L 919.569049 302.260455 
L 919.893834 311.502498 
L 920.218618 294.93843 
L 920.543403 298.618855 
L 920.868187 298.933796 
L 921.192972 331.467427 
L 921.517756 300.45162 
L 922.167325 335.617643 
L 922.816894 288.701261 
L 923.466463 370.130322 
L 923.791247 326.606882 
L 924.116032 309.232381 
L 924.440816 310.216014 
L 924.765601 304.469086 
L 925.090385 320.679949 
L 925.41517 324.155608 
L 925.739954 340.822851 
L 926.064739 322.870797 
L 926.389523 276.784541 
L 926.714308 304.341341 
L 927.039092 358.858228 
L 927.363876 340.130379 
L 927.688661 293.232233 
L 928.013445 306.189929 
L 928.33823 296.029709 
L 928.663014 354.159849 
L 928.987799 383.393498 
L 929.312583 304.680017 
L 929.637368 325.747116 
L 929.962152 314.006188 
L 930.611721 355.771949 
L 930.936506 349.731496 
L 931.586074 293.848589 
L 931.910859 308.563345 
L 932.235643 330.006263 
L 932.560428 366.063858 
L 932.885212 327.746546 
L 933.209997 323.904654 
L 933.534781 366.107126 
L 933.859566 319.046313 
L 934.18435 327.024686 
L 934.509135 301.016142 
L 934.833919 324.744901 
L 935.158703 312.265171 
L 935.483488 321.588821 
L 935.808272 323.180018 
L 936.133057 347.912057 
L 936.457841 321.295534 
L 936.782626 352.818619 
L 937.10741 288.700183 
L 937.432195 327.752861 
L 937.756979 294.825853 
L 938.081764 327.853329 
L 938.406548 331.988832 
L 938.731333 338.136016 
L 939.056117 294.839059 
L 939.380901 322.405513 
L 939.705686 380.640055 
L 940.03047 325.477386 
L 940.355255 345.21208 
L 940.680039 310.100032 
L 941.004824 326.728285 
L 941.329608 360.601634 
L 941.654393 329.593324 
L 941.979177 328.138506 
L 942.303962 332.883679 
L 942.628746 334.749335 
L 942.953531 359.769092 
L 943.603099 323.15801 
L 943.927884 318.984751 
L 944.252668 311.460084 
L 944.577453 323.134059 
L 944.902237 362.621294 
L 945.227022 340.456057 
L 945.551806 350.546097 
L 945.876591 330.570369 
L 946.201375 355.517688 
L 946.52616 323.429046 
L 946.850944 311.886909 
L 947.175728 319.061467 
L 947.500513 321.839168 
L 947.825297 375.829638 
L 948.150082 345.842706 
L 948.474866 397.819012 
L 949.124435 314.083997 
L 949.44922 396.987408 
L 949.774004 343.921572 
L 950.098789 385.247551 
L 950.423573 336.845932 
L 950.748358 324.383947 
L 951.073142 392.670632 
L 951.397926 324.224327 
L 951.722711 342.830962 
L 952.047495 377.775342 
L 952.37228 340.705727 
L 952.697064 414.441063 
L 953.021849 332.517216 
L 953.346633 320.827808 
L 953.671418 339.143476 
L 953.996202 382.523609 
L 954.320987 343.081012 
L 954.645771 376.592411 
L 955.29534 326.814597 
L 955.620124 340.942978 
L 955.944909 343.316743 
L 956.269693 316.09914 
L 956.594478 494.3268 
L 956.919262 303.879786 
L 957.244047 289.674022 
L 957.568831 262.509986 
L 957.893616 249.096811 
L 958.2184 300.686596 
L 958.543185 312.353709 
L 958.867969 304.92616 
L 959.192753 335.251148 
L 959.517538 377.728231 
L 959.842322 335.049615 
L 960.167107 332.116183 
L 960.491891 339.31176 
L 960.816676 334.097711 
L 961.14146 433.454216 
L 961.466245 349.766264 
L 961.791029 366.955815 
L 962.115814 338.403086 
L 962.440598 338.993337 
L 962.765383 369.142313 
L 963.090167 346.382523 
L 963.414951 347.726616 
L 963.739736 359.506714 
L 964.06452 345.707101 
L 964.389305 396.004159 
L 964.714089 352.861208 
L 965.038874 333.280534 
L 965.363658 335.168037 
L 966.013227 373.245877 
L 966.338012 334.06029 
L 966.662796 378.814672 
L 966.98758 344.30244 
L 967.312365 386.014507 
L 967.637149 340.143346 
L 967.961934 395.918284 
L 968.286718 357.794827 
L 968.611503 352.078916 
L 968.936287 406.439589 
L 969.261072 386.681934 
L 969.585856 358.574017 
L 970.235425 433.24423 
L 970.56021 356.919722 
L 970.884994 397.77105 
L 971.209778 353.050705 
L 971.534563 338.615825 
L 971.859347 331.214299 
L 972.184132 337.326602 
L 972.508916 383.182585 
L 972.833701 391.141944 
L 973.158485 367.653055 
L 973.808054 340.224959 
L 974.132839 385.530615 
L 974.457623 344.873165 
L 974.782408 412.400456 
L 975.107192 349.339333 
L 975.431976 367.921672 
L 975.756761 406.06597 
L 976.081545 381.700998 
L 976.731114 361.406764 
L 977.055899 390.45714 
L 977.380683 353.651235 
L 977.705468 389.103927 
L 978.030252 351.778772 
L 978.355037 384.829466 
L 978.679821 371.146886 
L 979.004605 379.212975 
L 979.32939 406.700232 
L 979.654174 349.361532 
L 979.978959 395.793435 
L 980.303743 370.75942 
L 980.628528 375.584858 
L 980.953312 410.650178 
L 981.278097 360.713298 
L 981.602881 345.466388 
L 981.927666 382.630758 
L 982.25245 367.124421 
L 982.577235 357.147208 
L 982.902019 369.775648 
L 983.226803 431.775698 
L 983.551588 357.391577 
L 983.876372 388.866449 
L 984.201157 360.263899 
L 984.525941 353.926952 
L 984.850726 369.651916 
L 985.17551 391.269137 
L 985.500295 378.794739 
L 985.825079 384.106909 
L 986.149864 382.657483 
L 986.474648 394.306004 
L 986.799433 350.969833 
L 987.124217 367.870374 
L 987.449001 354.226095 
L 987.773786 373.053914 
L 988.09857 380.384984 
L 988.423355 377.365177 
L 988.748139 364.308604 
L 989.072924 378.038967 
L 989.397708 373.357438 
L 989.722493 378.321696 
L 990.047277 374.630234 
L 990.372062 387.281275 
L 990.696846 374.875177 
L 991.02163 394.300406 
L 991.346415 380.539915 
L 991.671199 389.081196 
L 991.995984 404.904587 
L 992.320768 365.260541 
L 992.645553 364.593815 
L 992.970337 374.432859 
L 993.295122 409.168726 
L 993.619906 360.741516 
L 993.944691 363.934566 
L 994.269475 378.244165 
L 994.59426 384.83828 
L 994.919044 388.328315 
L 995.243828 371.979401 
L 995.568613 377.63861 
L 995.893397 387.681492 
L 996.218182 364.463622 
L 996.218182 364.463622 
" style="fill:none;stroke:#1f77b4;stroke-linecap:square;stroke-width:1.5;"/>
   </g>
   <g id="patch_3">
    <path d="M 144 514.5624 
L 144 69.3792 
" style="fill:none;stroke:#000000;stroke-linecap:square;stroke-linejoin:miter;stroke-width:0.8;"/>
   </g>
   <g id="patch_4">
    <path d="M 1036.8 514.5624 
L 1036.8 69.3792 
" style="fill:none;stroke:#000000;stroke-linecap:square;stroke-linejoin:miter;stroke-width:0.8;"/>
   </g>
   <g id="patch_5">
    <path d="M 144 514.5624 
L 1036.8 514.5624 
" style="fill:none;stroke:#000000;stroke-linecap:square;stroke-linejoin:miter;stroke-width:0.8;"/>
   </g>
   <g id="patch_6">
    <path d="M 144 69.3792 
L 1036.8 69.3792 
" style="fill:none;stroke:#000000;stroke-linecap:square;stroke-linejoin:miter;stroke-width:0.8;"/>
   </g>
  </g>
 </g>
 <defs>
  <clipPath id="pe3bc59f365">
   <rect height="445.1832" width="892.8" x="144" y="69.3792"/>
  </clipPath>
 </defs>
</svg>
